<mxfile host="app.diagrams.net" agent="Mozilla/5.0 (Windows NT 10.0; Win64; x64) AppleWebKit/537.36 (KHTML, like Gecko) Chrome/131.0.0.0 Safari/537.36" version="24.9.2">
  <diagram id="C5RBs43oDa-KdzZeNtuy" name="Page-1">
    <mxGraphModel dx="1319" dy="762" grid="1" gridSize="10" guides="1" tooltips="1" connect="1" arrows="1" fold="1" page="1" pageScale="1" pageWidth="1100" pageHeight="850" background="#ffffff" math="0" shadow="0">
      <root>
        <mxCell id="WIyWlLk6GJQsqaUBKTNV-0" />
        <mxCell id="WIyWlLk6GJQsqaUBKTNV-1" parent="WIyWlLk6GJQsqaUBKTNV-0" />
        <mxCell id="Qf7x0E1dqHhBOgiYK0y1-11" value="Employee Data ERD" style="text;html=1;fontSize=30;fontStyle=1;verticalAlign=middle;align=center;fillColor=default;strokeColor=default;labelBackgroundColor=default;" vertex="1" parent="WIyWlLk6GJQsqaUBKTNV-1">
          <mxGeometry x="10" y="40" width="1070" height="40" as="geometry" />
        </mxCell>
        <mxCell id="Qf7x0E1dqHhBOgiYK0y1-34" value="Employees" style="shape=table;startSize=30;container=1;collapsible=0;childLayout=tableLayout;fixedRows=1;rowLines=0;fontStyle=1;strokeColor=default;fontSize=16;points=[[0,0,0,0,0],[0,0.25,0,0,0],[0,0.5,0,0,0],[0,0.75,0,0,0],[0,1,0,0,0],[0.25,0,0,0,0],[0.25,1,0,0,0],[0.5,0,0,0,0],[0.5,1,0,0,0],[0.75,0,0,0,0],[0.75,1,0,0,0],[1,0,0,0,0],[1,0.25,0,0,0],[1,0.5,0,0,0],[1,0.75,0,0,0],[1,1,0,0,0]];labelBackgroundColor=default;whiteSpace=wrap;" vertex="1" parent="WIyWlLk6GJQsqaUBKTNV-1">
          <mxGeometry x="385.5" y="120" width="319" height="360" as="geometry" />
        </mxCell>
        <mxCell id="Qf7x0E1dqHhBOgiYK0y1-35" value="" style="shape=tableRow;horizontal=0;startSize=0;swimlaneHead=0;swimlaneBody=0;top=0;left=0;bottom=0;right=0;collapsible=0;dropTarget=0;fillColor=none;points=[[0,0.5],[1,0.5]];portConstraint=eastwest;strokeColor=inherit;fontSize=16;labelBackgroundColor=default;whiteSpace=wrap;" vertex="1" parent="Qf7x0E1dqHhBOgiYK0y1-34">
          <mxGeometry y="30" width="319" height="30" as="geometry" />
        </mxCell>
        <mxCell id="Qf7x0E1dqHhBOgiYK0y1-36" value="int" style="shape=partialRectangle;html=1;connectable=0;fillColor=default;top=0;left=0;bottom=0;right=0;overflow=hidden;pointerEvents=1;strokeColor=default;fontSize=12;labelBackgroundColor=default;gradientColor=none;perimeterSpacing=0;shadow=0;gradientDirection=north;labelBorderColor=none;fontFamily=Roboto;fontSource=https%3A%2F%2Ffonts.googleapis.com%2Fcss%3Ffamily%3DRoboto;whiteSpace=wrap;" vertex="1" parent="Qf7x0E1dqHhBOgiYK0y1-35">
          <mxGeometry width="79" height="30" as="geometry">
            <mxRectangle width="79" height="30" as="alternateBounds" />
          </mxGeometry>
        </mxCell>
        <mxCell id="Qf7x0E1dqHhBOgiYK0y1-37" value="employeeID (PK, AUTO_INCREMENT)" style="shape=partialRectangle;html=1;connectable=0;fillColor=default;top=0;left=0;bottom=0;right=0;align=left;spacingLeft=6;overflow=hidden;strokeColor=default;fontSize=12;labelBackgroundColor=default;gradientColor=none;perimeterSpacing=0;shadow=0;gradientDirection=north;labelBorderColor=none;fontFamily=Roboto;fontSource=https%3A%2F%2Ffonts.googleapis.com%2Fcss%3Ffamily%3DRoboto;whiteSpace=wrap;" vertex="1" parent="Qf7x0E1dqHhBOgiYK0y1-35">
          <mxGeometry x="79" width="240" height="30" as="geometry">
            <mxRectangle width="240" height="30" as="alternateBounds" />
          </mxGeometry>
        </mxCell>
        <mxCell id="Qf7x0E1dqHhBOgiYK0y1-38" value="" style="shape=tableRow;horizontal=0;startSize=0;swimlaneHead=0;swimlaneBody=0;top=0;left=0;bottom=0;right=0;collapsible=0;dropTarget=0;fillColor=none;points=[[0,0.5],[1,0.5]];portConstraint=eastwest;strokeColor=inherit;fontSize=16;labelBackgroundColor=default;whiteSpace=wrap;" vertex="1" parent="Qf7x0E1dqHhBOgiYK0y1-34">
          <mxGeometry y="60" width="319" height="30" as="geometry" />
        </mxCell>
        <mxCell id="Qf7x0E1dqHhBOgiYK0y1-39" value="varchar(50)" style="shape=partialRectangle;html=1;connectable=0;fillColor=default;top=0;left=0;bottom=0;right=0;overflow=hidden;strokeColor=default;fontSize=12;labelBackgroundColor=default;gradientColor=none;perimeterSpacing=0;shadow=0;gradientDirection=north;labelBorderColor=none;fontFamily=Roboto;fontSource=https%3A%2F%2Ffonts.googleapis.com%2Fcss%3Ffamily%3DRoboto;whiteSpace=wrap;" vertex="1" parent="Qf7x0E1dqHhBOgiYK0y1-38">
          <mxGeometry width="79" height="30" as="geometry">
            <mxRectangle width="79" height="30" as="alternateBounds" />
          </mxGeometry>
        </mxCell>
        <mxCell id="Qf7x0E1dqHhBOgiYK0y1-40" value="firstName" style="shape=partialRectangle;html=1;connectable=0;fillColor=default;top=0;left=0;bottom=0;right=0;align=left;spacingLeft=6;overflow=hidden;strokeColor=default;fontSize=12;labelBackgroundColor=default;gradientColor=none;perimeterSpacing=0;shadow=0;gradientDirection=north;labelBorderColor=none;fontFamily=Roboto;fontSource=https%3A%2F%2Ffonts.googleapis.com%2Fcss%3Ffamily%3DRoboto;whiteSpace=wrap;" vertex="1" parent="Qf7x0E1dqHhBOgiYK0y1-38">
          <mxGeometry x="79" width="240" height="30" as="geometry">
            <mxRectangle width="240" height="30" as="alternateBounds" />
          </mxGeometry>
        </mxCell>
        <mxCell id="Qf7x0E1dqHhBOgiYK0y1-41" value="" style="shape=tableRow;horizontal=0;startSize=0;swimlaneHead=0;swimlaneBody=0;top=0;left=0;bottom=0;right=0;collapsible=0;dropTarget=0;fillColor=none;points=[[0,0.5],[1,0.5]];portConstraint=eastwest;strokeColor=inherit;fontSize=16;labelBackgroundColor=default;whiteSpace=wrap;" vertex="1" parent="Qf7x0E1dqHhBOgiYK0y1-34">
          <mxGeometry y="90" width="319" height="30" as="geometry" />
        </mxCell>
        <mxCell id="Qf7x0E1dqHhBOgiYK0y1-42" value="varchar(50)" style="shape=partialRectangle;html=1;connectable=0;fillColor=default;top=0;left=0;bottom=0;right=0;overflow=hidden;strokeColor=default;fontSize=12;labelBackgroundColor=default;gradientColor=none;perimeterSpacing=0;shadow=0;gradientDirection=north;labelBorderColor=none;fontFamily=Roboto;fontSource=https%3A%2F%2Ffonts.googleapis.com%2Fcss%3Ffamily%3DRoboto;whiteSpace=wrap;" vertex="1" parent="Qf7x0E1dqHhBOgiYK0y1-41">
          <mxGeometry width="79" height="30" as="geometry">
            <mxRectangle width="79" height="30" as="alternateBounds" />
          </mxGeometry>
        </mxCell>
        <mxCell id="Qf7x0E1dqHhBOgiYK0y1-43" value="lastName" style="shape=partialRectangle;html=1;connectable=0;fillColor=default;top=0;left=0;bottom=0;right=0;align=left;spacingLeft=6;overflow=hidden;strokeColor=default;fontSize=12;labelBackgroundColor=default;gradientColor=none;perimeterSpacing=0;shadow=0;gradientDirection=north;labelBorderColor=none;fontFamily=Roboto;fontSource=https%3A%2F%2Ffonts.googleapis.com%2Fcss%3Ffamily%3DRoboto;whiteSpace=wrap;" vertex="1" parent="Qf7x0E1dqHhBOgiYK0y1-41">
          <mxGeometry x="79" width="240" height="30" as="geometry">
            <mxRectangle width="240" height="30" as="alternateBounds" />
          </mxGeometry>
        </mxCell>
        <mxCell id="Qf7x0E1dqHhBOgiYK0y1-44" value="" style="shape=tableRow;horizontal=0;startSize=0;swimlaneHead=0;swimlaneBody=0;top=0;left=0;bottom=0;right=0;collapsible=0;dropTarget=0;fillColor=none;points=[[0,0.5],[1,0.5]];portConstraint=eastwest;strokeColor=inherit;fontSize=16;labelBackgroundColor=default;whiteSpace=wrap;" vertex="1" parent="Qf7x0E1dqHhBOgiYK0y1-34">
          <mxGeometry y="120" width="319" height="30" as="geometry" />
        </mxCell>
        <mxCell id="Qf7x0E1dqHhBOgiYK0y1-45" value="varchar(100)" style="shape=partialRectangle;html=1;connectable=0;fillColor=default;top=0;left=0;bottom=0;right=0;overflow=hidden;strokeColor=default;fontSize=12;labelBackgroundColor=default;gradientColor=none;perimeterSpacing=0;shadow=0;gradientDirection=north;labelBorderColor=none;fontFamily=Roboto;fontSource=https%3A%2F%2Ffonts.googleapis.com%2Fcss%3Ffamily%3DRoboto;whiteSpace=wrap;" vertex="1" parent="Qf7x0E1dqHhBOgiYK0y1-44">
          <mxGeometry width="79" height="30" as="geometry">
            <mxRectangle width="79" height="30" as="alternateBounds" />
          </mxGeometry>
        </mxCell>
        <mxCell id="Qf7x0E1dqHhBOgiYK0y1-46" value="email (UNIQUE)" style="shape=partialRectangle;html=1;connectable=0;fillColor=default;top=0;left=0;bottom=0;right=0;align=left;spacingLeft=6;overflow=hidden;strokeColor=default;fontSize=12;labelBackgroundColor=default;gradientColor=none;perimeterSpacing=0;shadow=0;gradientDirection=north;labelBorderColor=none;fontFamily=Roboto;fontSource=https%3A%2F%2Ffonts.googleapis.com%2Fcss%3Ffamily%3DRoboto;whiteSpace=wrap;" vertex="1" parent="Qf7x0E1dqHhBOgiYK0y1-44">
          <mxGeometry x="79" width="240" height="30" as="geometry">
            <mxRectangle width="240" height="30" as="alternateBounds" />
          </mxGeometry>
        </mxCell>
        <mxCell id="Qf7x0E1dqHhBOgiYK0y1-47" value="" style="shape=tableRow;horizontal=0;startSize=0;swimlaneHead=0;swimlaneBody=0;top=0;left=0;bottom=0;right=0;collapsible=0;dropTarget=0;fillColor=none;points=[[0,0.5],[1,0.5]];portConstraint=eastwest;strokeColor=inherit;fontSize=16;labelBackgroundColor=default;whiteSpace=wrap;" vertex="1" parent="Qf7x0E1dqHhBOgiYK0y1-34">
          <mxGeometry y="150" width="319" height="30" as="geometry" />
        </mxCell>
        <mxCell id="Qf7x0E1dqHhBOgiYK0y1-48" value="varchar(15)" style="shape=partialRectangle;html=1;connectable=0;fillColor=default;top=0;left=0;bottom=0;right=0;overflow=hidden;strokeColor=default;fontSize=12;labelBackgroundColor=default;gradientColor=none;perimeterSpacing=0;shadow=0;gradientDirection=north;labelBorderColor=none;fontFamily=Roboto;fontSource=https%3A%2F%2Ffonts.googleapis.com%2Fcss%3Ffamily%3DRoboto;whiteSpace=wrap;" vertex="1" parent="Qf7x0E1dqHhBOgiYK0y1-47">
          <mxGeometry width="79" height="30" as="geometry">
            <mxRectangle width="79" height="30" as="alternateBounds" />
          </mxGeometry>
        </mxCell>
        <mxCell id="Qf7x0E1dqHhBOgiYK0y1-49" value="phone" style="shape=partialRectangle;html=1;connectable=0;fillColor=default;top=0;left=0;bottom=0;right=0;align=left;spacingLeft=6;overflow=hidden;strokeColor=default;fontSize=12;labelBackgroundColor=default;gradientColor=none;perimeterSpacing=0;shadow=0;gradientDirection=north;labelBorderColor=none;fontFamily=Roboto;fontSource=https%3A%2F%2Ffonts.googleapis.com%2Fcss%3Ffamily%3DRoboto;whiteSpace=wrap;" vertex="1" parent="Qf7x0E1dqHhBOgiYK0y1-47">
          <mxGeometry x="79" width="240" height="30" as="geometry">
            <mxRectangle width="240" height="30" as="alternateBounds" />
          </mxGeometry>
        </mxCell>
        <mxCell id="Qf7x0E1dqHhBOgiYK0y1-50" value="" style="shape=tableRow;horizontal=0;startSize=0;swimlaneHead=0;swimlaneBody=0;top=0;left=0;bottom=0;right=0;collapsible=0;dropTarget=0;fillColor=none;points=[[0,0.5],[1,0.5]];portConstraint=eastwest;strokeColor=inherit;fontSize=16;labelBackgroundColor=default;whiteSpace=wrap;" vertex="1" parent="Qf7x0E1dqHhBOgiYK0y1-34">
          <mxGeometry y="180" width="319" height="30" as="geometry" />
        </mxCell>
        <mxCell id="Qf7x0E1dqHhBOgiYK0y1-51" value="date" style="shape=partialRectangle;html=1;connectable=0;fillColor=default;top=0;left=0;bottom=0;right=0;overflow=hidden;strokeColor=default;fontSize=12;labelBackgroundColor=default;gradientColor=none;perimeterSpacing=0;shadow=0;gradientDirection=north;labelBorderColor=none;fontFamily=Roboto;fontSource=https%3A%2F%2Ffonts.googleapis.com%2Fcss%3Ffamily%3DRoboto;whiteSpace=wrap;" vertex="1" parent="Qf7x0E1dqHhBOgiYK0y1-50">
          <mxGeometry width="79" height="30" as="geometry">
            <mxRectangle width="79" height="30" as="alternateBounds" />
          </mxGeometry>
        </mxCell>
        <mxCell id="Qf7x0E1dqHhBOgiYK0y1-52" value="hireDate" style="shape=partialRectangle;html=1;connectable=0;fillColor=default;top=0;left=0;bottom=0;right=0;align=left;spacingLeft=6;overflow=hidden;strokeColor=default;fontSize=12;labelBackgroundColor=default;gradientColor=none;perimeterSpacing=0;shadow=0;gradientDirection=north;labelBorderColor=none;fontFamily=Roboto;fontSource=https%3A%2F%2Ffonts.googleapis.com%2Fcss%3Ffamily%3DRoboto;whiteSpace=wrap;" vertex="1" parent="Qf7x0E1dqHhBOgiYK0y1-50">
          <mxGeometry x="79" width="240" height="30" as="geometry">
            <mxRectangle width="240" height="30" as="alternateBounds" />
          </mxGeometry>
        </mxCell>
        <mxCell id="Qf7x0E1dqHhBOgiYK0y1-53" value="" style="shape=tableRow;horizontal=0;startSize=0;swimlaneHead=0;swimlaneBody=0;top=0;left=0;bottom=0;right=0;collapsible=0;dropTarget=0;fillColor=none;points=[[0,0.5],[1,0.5]];portConstraint=eastwest;strokeColor=inherit;fontSize=16;labelBackgroundColor=default;whiteSpace=wrap;" vertex="1" parent="Qf7x0E1dqHhBOgiYK0y1-34">
          <mxGeometry y="210" width="319" height="30" as="geometry" />
        </mxCell>
        <mxCell id="Qf7x0E1dqHhBOgiYK0y1-54" value="varchar(50)" style="shape=partialRectangle;html=1;connectable=0;fillColor=default;top=0;left=0;bottom=0;right=0;overflow=hidden;strokeColor=default;fontSize=12;labelBackgroundColor=default;gradientColor=none;perimeterSpacing=0;shadow=0;gradientDirection=north;labelBorderColor=none;fontFamily=Roboto;fontSource=https%3A%2F%2Ffonts.googleapis.com%2Fcss%3Ffamily%3DRoboto;whiteSpace=wrap;" vertex="1" parent="Qf7x0E1dqHhBOgiYK0y1-53">
          <mxGeometry width="79" height="30" as="geometry">
            <mxRectangle width="79" height="30" as="alternateBounds" />
          </mxGeometry>
        </mxCell>
        <mxCell id="Qf7x0E1dqHhBOgiYK0y1-55" value="jobTitle" style="shape=partialRectangle;html=1;connectable=0;fillColor=default;top=0;left=0;bottom=0;right=0;align=left;spacingLeft=6;overflow=hidden;strokeColor=default;fontSize=12;labelBackgroundColor=default;gradientColor=none;perimeterSpacing=0;shadow=0;gradientDirection=north;labelBorderColor=none;fontFamily=Roboto;fontSource=https%3A%2F%2Ffonts.googleapis.com%2Fcss%3Ffamily%3DRoboto;whiteSpace=wrap;" vertex="1" parent="Qf7x0E1dqHhBOgiYK0y1-53">
          <mxGeometry x="79" width="240" height="30" as="geometry">
            <mxRectangle width="240" height="30" as="alternateBounds" />
          </mxGeometry>
        </mxCell>
        <mxCell id="Qf7x0E1dqHhBOgiYK0y1-206" value="" style="shape=tableRow;horizontal=0;startSize=0;swimlaneHead=0;swimlaneBody=0;top=0;left=0;bottom=0;right=0;collapsible=0;dropTarget=0;fillColor=none;points=[[0,0.5],[1,0.5]];portConstraint=eastwest;strokeColor=inherit;fontSize=16;labelBackgroundColor=default;whiteSpace=wrap;" vertex="1" parent="Qf7x0E1dqHhBOgiYK0y1-34">
          <mxGeometry y="240" width="319" height="30" as="geometry" />
        </mxCell>
        <mxCell id="Qf7x0E1dqHhBOgiYK0y1-207" value="int" style="shape=partialRectangle;html=1;connectable=0;fillColor=default;top=0;left=0;bottom=0;right=0;overflow=hidden;pointerEvents=1;strokeColor=default;fontSize=12;labelBackgroundColor=default;gradientColor=none;perimeterSpacing=0;shadow=0;gradientDirection=north;labelBorderColor=none;fontFamily=Roboto;fontSource=https%3A%2F%2Ffonts.googleapis.com%2Fcss%3Ffamily%3DRoboto;whiteSpace=wrap;" vertex="1" parent="Qf7x0E1dqHhBOgiYK0y1-206">
          <mxGeometry width="79" height="30" as="geometry">
            <mxRectangle width="79" height="30" as="alternateBounds" />
          </mxGeometry>
        </mxCell>
        <mxCell id="Qf7x0E1dqHhBOgiYK0y1-208" value="departmentID (FK)" style="shape=partialRectangle;html=1;connectable=0;fillColor=default;top=0;left=0;bottom=0;right=0;align=left;spacingLeft=6;overflow=hidden;strokeColor=default;fontSize=12;labelBackgroundColor=default;gradientColor=none;perimeterSpacing=0;shadow=0;gradientDirection=north;labelBorderColor=none;fontFamily=Roboto;fontSource=https%3A%2F%2Ffonts.googleapis.com%2Fcss%3Ffamily%3DRoboto;whiteSpace=wrap;" vertex="1" parent="Qf7x0E1dqHhBOgiYK0y1-206">
          <mxGeometry x="79" width="240" height="30" as="geometry">
            <mxRectangle width="240" height="30" as="alternateBounds" />
          </mxGeometry>
        </mxCell>
        <mxCell id="Qf7x0E1dqHhBOgiYK0y1-209" value="" style="shape=tableRow;horizontal=0;startSize=0;swimlaneHead=0;swimlaneBody=0;top=0;left=0;bottom=0;right=0;collapsible=0;dropTarget=0;fillColor=none;points=[[0,0.5],[1,0.5]];portConstraint=eastwest;strokeColor=inherit;fontSize=16;labelBackgroundColor=default;whiteSpace=wrap;" vertex="1" parent="Qf7x0E1dqHhBOgiYK0y1-34">
          <mxGeometry y="270" width="319" height="30" as="geometry" />
        </mxCell>
        <mxCell id="Qf7x0E1dqHhBOgiYK0y1-210" value="int" style="shape=partialRectangle;html=1;connectable=0;fillColor=default;top=0;left=0;bottom=0;right=0;overflow=hidden;strokeColor=default;fontSize=12;labelBackgroundColor=default;gradientColor=none;perimeterSpacing=0;shadow=0;gradientDirection=north;labelBorderColor=none;fontFamily=Roboto;fontSource=https%3A%2F%2Ffonts.googleapis.com%2Fcss%3Ffamily%3DRoboto;whiteSpace=wrap;" vertex="1" parent="Qf7x0E1dqHhBOgiYK0y1-209">
          <mxGeometry width="79" height="30" as="geometry">
            <mxRectangle width="79" height="30" as="alternateBounds" />
          </mxGeometry>
        </mxCell>
        <mxCell id="Qf7x0E1dqHhBOgiYK0y1-211" value="managerID (FK, NULLABLE for top-level managers)" style="shape=partialRectangle;html=1;connectable=0;fillColor=default;top=0;left=0;bottom=0;right=0;align=left;spacingLeft=6;overflow=hidden;strokeColor=default;fontSize=12;labelBackgroundColor=default;gradientColor=none;perimeterSpacing=0;shadow=0;gradientDirection=north;labelBorderColor=none;fontFamily=Roboto;fontSource=https%3A%2F%2Ffonts.googleapis.com%2Fcss%3Ffamily%3DRoboto;whiteSpace=wrap;" vertex="1" parent="Qf7x0E1dqHhBOgiYK0y1-209">
          <mxGeometry x="79" width="240" height="30" as="geometry">
            <mxRectangle width="240" height="30" as="alternateBounds" />
          </mxGeometry>
        </mxCell>
        <mxCell id="Qf7x0E1dqHhBOgiYK0y1-212" value="" style="shape=tableRow;horizontal=0;startSize=0;swimlaneHead=0;swimlaneBody=0;top=0;left=0;bottom=0;right=0;collapsible=0;dropTarget=0;fillColor=none;points=[[0,0.5],[1,0.5]];portConstraint=eastwest;strokeColor=inherit;fontSize=16;labelBackgroundColor=default;whiteSpace=wrap;" vertex="1" parent="Qf7x0E1dqHhBOgiYK0y1-34">
          <mxGeometry y="300" width="319" height="30" as="geometry" />
        </mxCell>
        <mxCell id="Qf7x0E1dqHhBOgiYK0y1-213" value="enum" style="shape=partialRectangle;html=1;connectable=0;fillColor=default;top=0;left=0;bottom=0;right=0;overflow=hidden;strokeColor=default;fontSize=12;labelBackgroundColor=default;gradientColor=none;perimeterSpacing=0;shadow=0;gradientDirection=north;labelBorderColor=none;fontFamily=Roboto;fontSource=https%3A%2F%2Ffonts.googleapis.com%2Fcss%3Ffamily%3DRoboto;whiteSpace=wrap;" vertex="1" parent="Qf7x0E1dqHhBOgiYK0y1-212">
          <mxGeometry width="79" height="30" as="geometry">
            <mxRectangle width="79" height="30" as="alternateBounds" />
          </mxGeometry>
        </mxCell>
        <mxCell id="Qf7x0E1dqHhBOgiYK0y1-214" value="status (&#39;Active&#39; &#39;Inactive&#39;)" style="shape=partialRectangle;html=1;connectable=0;fillColor=default;top=0;left=0;bottom=0;right=0;align=left;spacingLeft=6;overflow=hidden;strokeColor=default;fontSize=12;labelBackgroundColor=default;gradientColor=none;perimeterSpacing=0;shadow=0;gradientDirection=north;labelBorderColor=none;fontFamily=Roboto;fontSource=https%3A%2F%2Ffonts.googleapis.com%2Fcss%3Ffamily%3DRoboto;whiteSpace=wrap;" vertex="1" parent="Qf7x0E1dqHhBOgiYK0y1-212">
          <mxGeometry x="79" width="240" height="30" as="geometry">
            <mxRectangle width="240" height="30" as="alternateBounds" />
          </mxGeometry>
        </mxCell>
        <mxCell id="Qf7x0E1dqHhBOgiYK0y1-215" value="" style="shape=tableRow;horizontal=0;startSize=0;swimlaneHead=0;swimlaneBody=0;top=0;left=0;bottom=0;right=0;collapsible=0;dropTarget=0;fillColor=none;points=[[0,0.5],[1,0.5]];portConstraint=eastwest;strokeColor=inherit;fontSize=16;labelBackgroundColor=default;whiteSpace=wrap;" vertex="1" parent="Qf7x0E1dqHhBOgiYK0y1-34">
          <mxGeometry y="330" width="319" height="30" as="geometry" />
        </mxCell>
        <mxCell id="Qf7x0E1dqHhBOgiYK0y1-216" value="varchar(200)" style="shape=partialRectangle;html=1;connectable=0;fillColor=default;top=0;left=0;bottom=0;right=0;overflow=hidden;strokeColor=default;fontSize=12;labelBackgroundColor=default;gradientColor=none;perimeterSpacing=0;shadow=0;gradientDirection=north;labelBorderColor=none;fontFamily=Roboto;fontSource=https%3A%2F%2Ffonts.googleapis.com%2Fcss%3Ffamily%3DRoboto;whiteSpace=wrap;" vertex="1" parent="Qf7x0E1dqHhBOgiYK0y1-215">
          <mxGeometry width="79" height="30" as="geometry">
            <mxRectangle width="79" height="30" as="alternateBounds" />
          </mxGeometry>
        </mxCell>
        <mxCell id="Qf7x0E1dqHhBOgiYK0y1-217" value="address" style="shape=partialRectangle;html=1;connectable=0;fillColor=default;top=0;left=0;bottom=0;right=0;align=left;spacingLeft=6;overflow=hidden;strokeColor=default;fontSize=12;labelBackgroundColor=default;gradientColor=none;perimeterSpacing=0;shadow=0;gradientDirection=north;labelBorderColor=none;fontFamily=Roboto;fontSource=https%3A%2F%2Ffonts.googleapis.com%2Fcss%3Ffamily%3DRoboto;whiteSpace=wrap;" vertex="1" parent="Qf7x0E1dqHhBOgiYK0y1-215">
          <mxGeometry x="79" width="240" height="30" as="geometry">
            <mxRectangle width="240" height="30" as="alternateBounds" />
          </mxGeometry>
        </mxCell>
        <mxCell id="Qf7x0E1dqHhBOgiYK0y1-227" value="Departments" style="shape=table;startSize=30;container=1;collapsible=0;childLayout=tableLayout;fixedRows=1;rowLines=0;fontStyle=1;strokeColor=default;fontSize=16;points=[[0,0,0,0,0],[0,0.25,0,0,0],[0,0.5,0,0,0],[0,0.75,0,0,0],[0,1,0,0,0],[0.25,0,0,0,0],[0.25,1,0,0,0],[0.5,0,0,0,0],[0.5,1,0,0,0],[0.75,0,0,0,0],[0.75,1,0,0,0],[1,0,0,0,0],[1,0.25,0,0,0],[1,0.5,0,0,0],[1,0.75,0,0,0],[1,1,0,0,0]];labelBackgroundColor=default;whiteSpace=wrap;" vertex="1" parent="WIyWlLk6GJQsqaUBKTNV-1">
          <mxGeometry x="760" y="120" width="319" height="150" as="geometry" />
        </mxCell>
        <mxCell id="Qf7x0E1dqHhBOgiYK0y1-228" value="" style="shape=tableRow;horizontal=0;startSize=0;swimlaneHead=0;swimlaneBody=0;top=0;left=0;bottom=0;right=0;collapsible=0;dropTarget=0;fillColor=none;points=[[0,0.5],[1,0.5]];portConstraint=eastwest;strokeColor=inherit;fontSize=16;labelBackgroundColor=default;whiteSpace=wrap;" vertex="1" parent="Qf7x0E1dqHhBOgiYK0y1-227">
          <mxGeometry y="30" width="319" height="30" as="geometry" />
        </mxCell>
        <mxCell id="Qf7x0E1dqHhBOgiYK0y1-229" value="int" style="shape=partialRectangle;html=1;connectable=0;fillColor=default;top=0;left=0;bottom=0;right=0;overflow=hidden;pointerEvents=1;strokeColor=default;fontSize=12;labelBackgroundColor=default;gradientColor=none;perimeterSpacing=0;shadow=0;gradientDirection=north;labelBorderColor=none;fontFamily=Roboto;fontSource=https%3A%2F%2Ffonts.googleapis.com%2Fcss%3Ffamily%3DRoboto;whiteSpace=wrap;" vertex="1" parent="Qf7x0E1dqHhBOgiYK0y1-228">
          <mxGeometry width="79" height="30" as="geometry">
            <mxRectangle width="79" height="30" as="alternateBounds" />
          </mxGeometry>
        </mxCell>
        <mxCell id="Qf7x0E1dqHhBOgiYK0y1-230" value="departmentID (PK, AUTO_INCREMENT)" style="shape=partialRectangle;html=1;connectable=0;fillColor=default;top=0;left=0;bottom=0;right=0;align=left;spacingLeft=6;overflow=hidden;strokeColor=default;fontSize=12;labelBackgroundColor=default;gradientColor=none;perimeterSpacing=0;shadow=0;gradientDirection=north;labelBorderColor=none;fontFamily=Roboto;fontSource=https%3A%2F%2Ffonts.googleapis.com%2Fcss%3Ffamily%3DRoboto;whiteSpace=wrap;" vertex="1" parent="Qf7x0E1dqHhBOgiYK0y1-228">
          <mxGeometry x="79" width="240" height="30" as="geometry">
            <mxRectangle width="240" height="30" as="alternateBounds" />
          </mxGeometry>
        </mxCell>
        <mxCell id="Qf7x0E1dqHhBOgiYK0y1-231" value="" style="shape=tableRow;horizontal=0;startSize=0;swimlaneHead=0;swimlaneBody=0;top=0;left=0;bottom=0;right=0;collapsible=0;dropTarget=0;fillColor=none;points=[[0,0.5],[1,0.5]];portConstraint=eastwest;strokeColor=inherit;fontSize=16;labelBackgroundColor=default;whiteSpace=wrap;" vertex="1" parent="Qf7x0E1dqHhBOgiYK0y1-227">
          <mxGeometry y="60" width="319" height="30" as="geometry" />
        </mxCell>
        <mxCell id="Qf7x0E1dqHhBOgiYK0y1-232" value="varchar(50)" style="shape=partialRectangle;html=1;connectable=0;fillColor=default;top=0;left=0;bottom=0;right=0;overflow=hidden;strokeColor=default;fontSize=12;labelBackgroundColor=default;gradientColor=none;perimeterSpacing=0;shadow=0;gradientDirection=north;labelBorderColor=none;fontFamily=Roboto;fontSource=https%3A%2F%2Ffonts.googleapis.com%2Fcss%3Ffamily%3DRoboto;whiteSpace=wrap;" vertex="1" parent="Qf7x0E1dqHhBOgiYK0y1-231">
          <mxGeometry width="79" height="30" as="geometry">
            <mxRectangle width="79" height="30" as="alternateBounds" />
          </mxGeometry>
        </mxCell>
        <mxCell id="Qf7x0E1dqHhBOgiYK0y1-233" value="departmentName" style="shape=partialRectangle;html=1;connectable=0;fillColor=default;top=0;left=0;bottom=0;right=0;align=left;spacingLeft=6;overflow=hidden;strokeColor=default;fontSize=12;labelBackgroundColor=default;gradientColor=none;perimeterSpacing=0;shadow=0;gradientDirection=north;labelBorderColor=none;fontFamily=Roboto;fontSource=https%3A%2F%2Ffonts.googleapis.com%2Fcss%3Ffamily%3DRoboto;whiteSpace=wrap;" vertex="1" parent="Qf7x0E1dqHhBOgiYK0y1-231">
          <mxGeometry x="79" width="240" height="30" as="geometry">
            <mxRectangle width="240" height="30" as="alternateBounds" />
          </mxGeometry>
        </mxCell>
        <mxCell id="Qf7x0E1dqHhBOgiYK0y1-234" value="" style="shape=tableRow;horizontal=0;startSize=0;swimlaneHead=0;swimlaneBody=0;top=0;left=0;bottom=0;right=0;collapsible=0;dropTarget=0;fillColor=none;points=[[0,0.5],[1,0.5]];portConstraint=eastwest;strokeColor=inherit;fontSize=16;labelBackgroundColor=default;whiteSpace=wrap;" vertex="1" parent="Qf7x0E1dqHhBOgiYK0y1-227">
          <mxGeometry y="90" width="319" height="30" as="geometry" />
        </mxCell>
        <mxCell id="Qf7x0E1dqHhBOgiYK0y1-235" value="int" style="shape=partialRectangle;html=1;connectable=0;fillColor=default;top=0;left=0;bottom=0;right=0;overflow=hidden;strokeColor=default;fontSize=12;labelBackgroundColor=default;gradientColor=none;perimeterSpacing=0;shadow=0;gradientDirection=north;labelBorderColor=none;fontFamily=Roboto;fontSource=https%3A%2F%2Ffonts.googleapis.com%2Fcss%3Ffamily%3DRoboto;whiteSpace=wrap;" vertex="1" parent="Qf7x0E1dqHhBOgiYK0y1-234">
          <mxGeometry width="79" height="30" as="geometry">
            <mxRectangle width="79" height="30" as="alternateBounds" />
          </mxGeometry>
        </mxCell>
        <mxCell id="Qf7x0E1dqHhBOgiYK0y1-236" value="location (FK to Employees)" style="shape=partialRectangle;html=1;connectable=0;fillColor=default;top=0;left=0;bottom=0;right=0;align=left;spacingLeft=6;overflow=hidden;strokeColor=default;fontSize=12;labelBackgroundColor=default;gradientColor=none;perimeterSpacing=0;shadow=0;gradientDirection=north;labelBorderColor=none;fontFamily=Roboto;fontSource=https%3A%2F%2Ffonts.googleapis.com%2Fcss%3Ffamily%3DRoboto;whiteSpace=wrap;" vertex="1" parent="Qf7x0E1dqHhBOgiYK0y1-234">
          <mxGeometry x="79" width="240" height="30" as="geometry">
            <mxRectangle width="240" height="30" as="alternateBounds" />
          </mxGeometry>
        </mxCell>
        <mxCell id="Qf7x0E1dqHhBOgiYK0y1-237" value="" style="shape=tableRow;horizontal=0;startSize=0;swimlaneHead=0;swimlaneBody=0;top=0;left=0;bottom=0;right=0;collapsible=0;dropTarget=0;fillColor=none;points=[[0,0.5],[1,0.5]];portConstraint=eastwest;strokeColor=inherit;fontSize=16;labelBackgroundColor=default;whiteSpace=wrap;" vertex="1" parent="Qf7x0E1dqHhBOgiYK0y1-227">
          <mxGeometry y="120" width="319" height="30" as="geometry" />
        </mxCell>
        <mxCell id="Qf7x0E1dqHhBOgiYK0y1-238" value="int" style="shape=partialRectangle;html=1;connectable=0;fillColor=default;top=0;left=0;bottom=0;right=0;overflow=hidden;strokeColor=default;fontSize=12;labelBackgroundColor=default;gradientColor=none;perimeterSpacing=0;shadow=0;gradientDirection=north;labelBorderColor=none;fontFamily=Roboto;fontSource=https%3A%2F%2Ffonts.googleapis.com%2Fcss%3Ffamily%3DRoboto;whiteSpace=wrap;" vertex="1" parent="Qf7x0E1dqHhBOgiYK0y1-237">
          <mxGeometry width="79" height="30" as="geometry">
            <mxRectangle width="79" height="30" as="alternateBounds" />
          </mxGeometry>
        </mxCell>
        <mxCell id="Qf7x0E1dqHhBOgiYK0y1-239" value="managerID (FK to Employees, NULLABLE)" style="shape=partialRectangle;html=1;connectable=0;fillColor=default;top=0;left=0;bottom=0;right=0;align=left;spacingLeft=6;overflow=hidden;strokeColor=default;fontSize=12;labelBackgroundColor=default;gradientColor=none;perimeterSpacing=0;shadow=0;gradientDirection=north;labelBorderColor=none;fontFamily=Roboto;fontSource=https%3A%2F%2Ffonts.googleapis.com%2Fcss%3Ffamily%3DRoboto;whiteSpace=wrap;" vertex="1" parent="Qf7x0E1dqHhBOgiYK0y1-237">
          <mxGeometry x="79" width="240" height="30" as="geometry">
            <mxRectangle width="240" height="30" as="alternateBounds" />
          </mxGeometry>
        </mxCell>
        <mxCell id="Qf7x0E1dqHhBOgiYK0y1-261" value="Roles" style="shape=table;startSize=30;container=1;collapsible=0;childLayout=tableLayout;fixedRows=1;rowLines=0;fontStyle=1;strokeColor=default;fontSize=16;points=[[0,0,0,0,0],[0,0.25,0,0,0],[0,0.5,0,0,0],[0,0.75,0,0,0],[0,1,0,0,0],[0.25,0,0,0,0],[0.25,1,0,0,0],[0.5,0,0,0,0],[0.5,1,0,0,0],[0.75,0,0,0,0],[0.75,1,0,0,0],[1,0,0,0,0],[1,0.25,0,0,0],[1,0.5,0,0,0],[1,0.75,0,0,0],[1,1,0,0,0]];labelBackgroundColor=default;whiteSpace=wrap;" vertex="1" parent="WIyWlLk6GJQsqaUBKTNV-1">
          <mxGeometry x="761" y="300" width="319" height="180" as="geometry" />
        </mxCell>
        <mxCell id="Qf7x0E1dqHhBOgiYK0y1-262" value="" style="shape=tableRow;horizontal=0;startSize=0;swimlaneHead=0;swimlaneBody=0;top=0;left=0;bottom=0;right=0;collapsible=0;dropTarget=0;fillColor=none;points=[[0,0.5],[1,0.5]];portConstraint=eastwest;strokeColor=inherit;fontSize=16;labelBackgroundColor=default;whiteSpace=wrap;" vertex="1" parent="Qf7x0E1dqHhBOgiYK0y1-261">
          <mxGeometry y="30" width="319" height="30" as="geometry" />
        </mxCell>
        <mxCell id="Qf7x0E1dqHhBOgiYK0y1-263" value="int" style="shape=partialRectangle;html=1;connectable=0;fillColor=default;top=0;left=0;bottom=0;right=0;overflow=hidden;pointerEvents=1;strokeColor=default;fontSize=12;labelBackgroundColor=default;gradientColor=none;perimeterSpacing=0;shadow=0;gradientDirection=north;labelBorderColor=none;fontFamily=Roboto;fontSource=https%3A%2F%2Ffonts.googleapis.com%2Fcss%3Ffamily%3DRoboto;whiteSpace=wrap;" vertex="1" parent="Qf7x0E1dqHhBOgiYK0y1-262">
          <mxGeometry width="79" height="30" as="geometry">
            <mxRectangle width="79" height="30" as="alternateBounds" />
          </mxGeometry>
        </mxCell>
        <mxCell id="Qf7x0E1dqHhBOgiYK0y1-264" value="roleID (PK, AUTO_INCREMENT)" style="shape=partialRectangle;html=1;connectable=0;fillColor=default;top=0;left=0;bottom=0;right=0;align=left;spacingLeft=6;overflow=hidden;strokeColor=default;fontSize=12;labelBackgroundColor=default;gradientColor=none;perimeterSpacing=0;shadow=0;gradientDirection=north;labelBorderColor=none;fontFamily=Roboto;fontSource=https%3A%2F%2Ffonts.googleapis.com%2Fcss%3Ffamily%3DRoboto;whiteSpace=wrap;" vertex="1" parent="Qf7x0E1dqHhBOgiYK0y1-262">
          <mxGeometry x="79" width="240" height="30" as="geometry">
            <mxRectangle width="240" height="30" as="alternateBounds" />
          </mxGeometry>
        </mxCell>
        <mxCell id="Qf7x0E1dqHhBOgiYK0y1-265" value="" style="shape=tableRow;horizontal=0;startSize=0;swimlaneHead=0;swimlaneBody=0;top=0;left=0;bottom=0;right=0;collapsible=0;dropTarget=0;fillColor=none;points=[[0,0.5],[1,0.5]];portConstraint=eastwest;strokeColor=inherit;fontSize=16;labelBackgroundColor=default;whiteSpace=wrap;" vertex="1" parent="Qf7x0E1dqHhBOgiYK0y1-261">
          <mxGeometry y="60" width="319" height="30" as="geometry" />
        </mxCell>
        <mxCell id="Qf7x0E1dqHhBOgiYK0y1-266" value="varchar(50)" style="shape=partialRectangle;html=1;connectable=0;fillColor=default;top=0;left=0;bottom=0;right=0;overflow=hidden;strokeColor=default;fontSize=12;labelBackgroundColor=default;gradientColor=none;perimeterSpacing=0;shadow=0;gradientDirection=north;labelBorderColor=none;fontFamily=Roboto;fontSource=https%3A%2F%2Ffonts.googleapis.com%2Fcss%3Ffamily%3DRoboto;whiteSpace=wrap;" vertex="1" parent="Qf7x0E1dqHhBOgiYK0y1-265">
          <mxGeometry width="79" height="30" as="geometry">
            <mxRectangle width="79" height="30" as="alternateBounds" />
          </mxGeometry>
        </mxCell>
        <mxCell id="Qf7x0E1dqHhBOgiYK0y1-267" value="roleName" style="shape=partialRectangle;html=1;connectable=0;fillColor=default;top=0;left=0;bottom=0;right=0;align=left;spacingLeft=6;overflow=hidden;strokeColor=default;fontSize=12;labelBackgroundColor=default;gradientColor=none;perimeterSpacing=0;shadow=0;gradientDirection=north;labelBorderColor=none;fontFamily=Roboto;fontSource=https%3A%2F%2Ffonts.googleapis.com%2Fcss%3Ffamily%3DRoboto;whiteSpace=wrap;" vertex="1" parent="Qf7x0E1dqHhBOgiYK0y1-265">
          <mxGeometry x="79" width="240" height="30" as="geometry">
            <mxRectangle width="240" height="30" as="alternateBounds" />
          </mxGeometry>
        </mxCell>
        <mxCell id="Qf7x0E1dqHhBOgiYK0y1-268" value="" style="shape=tableRow;horizontal=0;startSize=0;swimlaneHead=0;swimlaneBody=0;top=0;left=0;bottom=0;right=0;collapsible=0;dropTarget=0;fillColor=none;points=[[0,0.5],[1,0.5]];portConstraint=eastwest;strokeColor=inherit;fontSize=16;labelBackgroundColor=default;whiteSpace=wrap;" vertex="1" parent="Qf7x0E1dqHhBOgiYK0y1-261">
          <mxGeometry y="90" width="319" height="30" as="geometry" />
        </mxCell>
        <mxCell id="Qf7x0E1dqHhBOgiYK0y1-269" value="decimal(10,2)" style="shape=partialRectangle;html=1;connectable=0;fillColor=default;top=0;left=0;bottom=0;right=0;overflow=hidden;strokeColor=default;fontSize=12;labelBackgroundColor=default;gradientColor=none;perimeterSpacing=0;shadow=0;gradientDirection=north;labelBorderColor=none;fontFamily=Roboto;fontSource=https%3A%2F%2Ffonts.googleapis.com%2Fcss%3Ffamily%3DRoboto;whiteSpace=wrap;" vertex="1" parent="Qf7x0E1dqHhBOgiYK0y1-268">
          <mxGeometry width="79" height="30" as="geometry">
            <mxRectangle width="79" height="30" as="alternateBounds" />
          </mxGeometry>
        </mxCell>
        <mxCell id="Qf7x0E1dqHhBOgiYK0y1-270" value="salaryRangeMin" style="shape=partialRectangle;html=1;connectable=0;fillColor=default;top=0;left=0;bottom=0;right=0;align=left;spacingLeft=6;overflow=hidden;strokeColor=default;fontSize=12;labelBackgroundColor=default;gradientColor=none;perimeterSpacing=0;shadow=0;gradientDirection=north;labelBorderColor=none;fontFamily=Roboto;fontSource=https%3A%2F%2Ffonts.googleapis.com%2Fcss%3Ffamily%3DRoboto;whiteSpace=wrap;" vertex="1" parent="Qf7x0E1dqHhBOgiYK0y1-268">
          <mxGeometry x="79" width="240" height="30" as="geometry">
            <mxRectangle width="240" height="30" as="alternateBounds" />
          </mxGeometry>
        </mxCell>
        <mxCell id="Qf7x0E1dqHhBOgiYK0y1-271" value="" style="shape=tableRow;horizontal=0;startSize=0;swimlaneHead=0;swimlaneBody=0;top=0;left=0;bottom=0;right=0;collapsible=0;dropTarget=0;fillColor=none;points=[[0,0.5],[1,0.5]];portConstraint=eastwest;strokeColor=inherit;fontSize=16;labelBackgroundColor=default;whiteSpace=wrap;" vertex="1" parent="Qf7x0E1dqHhBOgiYK0y1-261">
          <mxGeometry y="120" width="319" height="30" as="geometry" />
        </mxCell>
        <mxCell id="Qf7x0E1dqHhBOgiYK0y1-272" value="decimal(10,2)" style="shape=partialRectangle;html=1;connectable=0;fillColor=default;top=0;left=0;bottom=0;right=0;overflow=hidden;strokeColor=default;fontSize=12;labelBackgroundColor=default;gradientColor=none;perimeterSpacing=0;shadow=0;gradientDirection=north;labelBorderColor=none;fontFamily=Roboto;fontSource=https%3A%2F%2Ffonts.googleapis.com%2Fcss%3Ffamily%3DRoboto;whiteSpace=wrap;" vertex="1" parent="Qf7x0E1dqHhBOgiYK0y1-271">
          <mxGeometry width="79" height="30" as="geometry">
            <mxRectangle width="79" height="30" as="alternateBounds" />
          </mxGeometry>
        </mxCell>
        <mxCell id="Qf7x0E1dqHhBOgiYK0y1-273" value="salaryRangeMax" style="shape=partialRectangle;html=1;connectable=0;fillColor=default;top=0;left=0;bottom=0;right=0;align=left;spacingLeft=6;overflow=hidden;strokeColor=default;fontSize=12;labelBackgroundColor=default;gradientColor=none;perimeterSpacing=0;shadow=0;gradientDirection=north;labelBorderColor=none;fontFamily=Roboto;fontSource=https%3A%2F%2Ffonts.googleapis.com%2Fcss%3Ffamily%3DRoboto;whiteSpace=wrap;" vertex="1" parent="Qf7x0E1dqHhBOgiYK0y1-271">
          <mxGeometry x="79" width="240" height="30" as="geometry">
            <mxRectangle width="240" height="30" as="alternateBounds" />
          </mxGeometry>
        </mxCell>
        <mxCell id="Qf7x0E1dqHhBOgiYK0y1-274" value="" style="shape=tableRow;horizontal=0;startSize=0;swimlaneHead=0;swimlaneBody=0;top=0;left=0;bottom=0;right=0;collapsible=0;dropTarget=0;fillColor=none;points=[[0,0.5],[1,0.5]];portConstraint=eastwest;strokeColor=inherit;fontSize=16;labelBackgroundColor=default;whiteSpace=wrap;" vertex="1" parent="Qf7x0E1dqHhBOgiYK0y1-261">
          <mxGeometry y="150" width="319" height="30" as="geometry" />
        </mxCell>
        <mxCell id="Qf7x0E1dqHhBOgiYK0y1-275" value="text" style="shape=partialRectangle;html=1;connectable=0;fillColor=default;top=0;left=0;bottom=0;right=0;overflow=hidden;strokeColor=default;fontSize=12;labelBackgroundColor=default;gradientColor=none;perimeterSpacing=0;shadow=0;gradientDirection=north;labelBorderColor=none;fontFamily=Roboto;fontSource=https%3A%2F%2Ffonts.googleapis.com%2Fcss%3Ffamily%3DRoboto;whiteSpace=wrap;" vertex="1" parent="Qf7x0E1dqHhBOgiYK0y1-274">
          <mxGeometry width="79" height="30" as="geometry">
            <mxRectangle width="79" height="30" as="alternateBounds" />
          </mxGeometry>
        </mxCell>
        <mxCell id="Qf7x0E1dqHhBOgiYK0y1-276" value="description" style="shape=partialRectangle;html=1;connectable=0;fillColor=default;top=0;left=0;bottom=0;right=0;align=left;spacingLeft=6;overflow=hidden;strokeColor=default;fontSize=12;labelBackgroundColor=default;gradientColor=none;perimeterSpacing=0;shadow=0;gradientDirection=north;labelBorderColor=none;fontFamily=Roboto;fontSource=https%3A%2F%2Ffonts.googleapis.com%2Fcss%3Ffamily%3DRoboto;whiteSpace=wrap;" vertex="1" parent="Qf7x0E1dqHhBOgiYK0y1-274">
          <mxGeometry x="79" width="240" height="30" as="geometry">
            <mxRectangle width="240" height="30" as="alternateBounds" />
          </mxGeometry>
        </mxCell>
        <mxCell id="Qf7x0E1dqHhBOgiYK0y1-277" value="Regional Offices" style="shape=table;startSize=30;container=1;collapsible=0;childLayout=tableLayout;fixedRows=1;rowLines=0;fontStyle=1;strokeColor=default;fontSize=16;points=[[0,0,0,0,0],[0,0.25,0,0,0],[0,0.5,0,0,0],[0,0.75,0,0,0],[0,1,0,0,0],[0.25,0,0,0,0],[0.25,1,0,0,0],[0.5,0,0,0,0],[0.5,1,0,0,0],[0.75,0,0,0,0],[0.75,1,0,0,0],[1,0,0,0,0],[1,0.25,0,0,0],[1,0.5,0,0,0],[1,0.75,0,0,0],[1,1,0,0,0]];labelBackgroundColor=default;whiteSpace=wrap;" vertex="1" parent="WIyWlLk6GJQsqaUBKTNV-1">
          <mxGeometry x="385.5" y="510" width="319" height="180" as="geometry" />
        </mxCell>
        <mxCell id="Qf7x0E1dqHhBOgiYK0y1-278" value="" style="shape=tableRow;horizontal=0;startSize=0;swimlaneHead=0;swimlaneBody=0;top=0;left=0;bottom=0;right=0;collapsible=0;dropTarget=0;fillColor=none;points=[[0,0.5],[1,0.5]];portConstraint=eastwest;strokeColor=inherit;fontSize=16;labelBackgroundColor=default;whiteSpace=wrap;" vertex="1" parent="Qf7x0E1dqHhBOgiYK0y1-277">
          <mxGeometry y="30" width="319" height="30" as="geometry" />
        </mxCell>
        <mxCell id="Qf7x0E1dqHhBOgiYK0y1-279" value="int" style="shape=partialRectangle;html=1;connectable=0;fillColor=default;top=0;left=0;bottom=0;right=0;overflow=hidden;pointerEvents=1;strokeColor=default;fontSize=12;labelBackgroundColor=default;gradientColor=none;perimeterSpacing=0;shadow=0;gradientDirection=north;labelBorderColor=none;fontFamily=Roboto;fontSource=https%3A%2F%2Ffonts.googleapis.com%2Fcss%3Ffamily%3DRoboto;whiteSpace=wrap;" vertex="1" parent="Qf7x0E1dqHhBOgiYK0y1-278">
          <mxGeometry width="79" height="30" as="geometry">
            <mxRectangle width="79" height="30" as="alternateBounds" />
          </mxGeometry>
        </mxCell>
        <mxCell id="Qf7x0E1dqHhBOgiYK0y1-280" value="officeID (PK, AUTO_INCREMENT)" style="shape=partialRectangle;html=1;connectable=0;fillColor=default;top=0;left=0;bottom=0;right=0;align=left;spacingLeft=6;overflow=hidden;strokeColor=default;fontSize=12;labelBackgroundColor=default;gradientColor=none;perimeterSpacing=0;shadow=0;gradientDirection=north;labelBorderColor=none;fontFamily=Roboto;fontSource=https%3A%2F%2Ffonts.googleapis.com%2Fcss%3Ffamily%3DRoboto;whiteSpace=wrap;" vertex="1" parent="Qf7x0E1dqHhBOgiYK0y1-278">
          <mxGeometry x="79" width="240" height="30" as="geometry">
            <mxRectangle width="240" height="30" as="alternateBounds" />
          </mxGeometry>
        </mxCell>
        <mxCell id="Qf7x0E1dqHhBOgiYK0y1-281" value="" style="shape=tableRow;horizontal=0;startSize=0;swimlaneHead=0;swimlaneBody=0;top=0;left=0;bottom=0;right=0;collapsible=0;dropTarget=0;fillColor=none;points=[[0,0.5],[1,0.5]];portConstraint=eastwest;strokeColor=inherit;fontSize=16;labelBackgroundColor=default;whiteSpace=wrap;" vertex="1" parent="Qf7x0E1dqHhBOgiYK0y1-277">
          <mxGeometry y="60" width="319" height="30" as="geometry" />
        </mxCell>
        <mxCell id="Qf7x0E1dqHhBOgiYK0y1-282" value="varchar(50)" style="shape=partialRectangle;html=1;connectable=0;fillColor=default;top=0;left=0;bottom=0;right=0;overflow=hidden;strokeColor=default;fontSize=12;labelBackgroundColor=default;gradientColor=none;perimeterSpacing=0;shadow=0;gradientDirection=north;labelBorderColor=none;fontFamily=Roboto;fontSource=https%3A%2F%2Ffonts.googleapis.com%2Fcss%3Ffamily%3DRoboto;whiteSpace=wrap;" vertex="1" parent="Qf7x0E1dqHhBOgiYK0y1-281">
          <mxGeometry width="79" height="30" as="geometry">
            <mxRectangle width="79" height="30" as="alternateBounds" />
          </mxGeometry>
        </mxCell>
        <mxCell id="Qf7x0E1dqHhBOgiYK0y1-283" value="regionName" style="shape=partialRectangle;html=1;connectable=0;fillColor=default;top=0;left=0;bottom=0;right=0;align=left;spacingLeft=6;overflow=hidden;strokeColor=default;fontSize=12;labelBackgroundColor=default;gradientColor=none;perimeterSpacing=0;shadow=0;gradientDirection=north;labelBorderColor=none;fontFamily=Roboto;fontSource=https%3A%2F%2Ffonts.googleapis.com%2Fcss%3Ffamily%3DRoboto;whiteSpace=wrap;" vertex="1" parent="Qf7x0E1dqHhBOgiYK0y1-281">
          <mxGeometry x="79" width="240" height="30" as="geometry">
            <mxRectangle width="240" height="30" as="alternateBounds" />
          </mxGeometry>
        </mxCell>
        <mxCell id="Qf7x0E1dqHhBOgiYK0y1-284" value="" style="shape=tableRow;horizontal=0;startSize=0;swimlaneHead=0;swimlaneBody=0;top=0;left=0;bottom=0;right=0;collapsible=0;dropTarget=0;fillColor=none;points=[[0,0.5],[1,0.5]];portConstraint=eastwest;strokeColor=inherit;fontSize=16;labelBackgroundColor=default;whiteSpace=wrap;" vertex="1" parent="Qf7x0E1dqHhBOgiYK0y1-277">
          <mxGeometry y="90" width="319" height="30" as="geometry" />
        </mxCell>
        <mxCell id="Qf7x0E1dqHhBOgiYK0y1-285" value="varchar(50)" style="shape=partialRectangle;html=1;connectable=0;fillColor=default;top=0;left=0;bottom=0;right=0;overflow=hidden;strokeColor=default;fontSize=12;labelBackgroundColor=default;gradientColor=none;perimeterSpacing=0;shadow=0;gradientDirection=north;labelBorderColor=none;fontFamily=Roboto;fontSource=https%3A%2F%2Ffonts.googleapis.com%2Fcss%3Ffamily%3DRoboto;whiteSpace=wrap;" vertex="1" parent="Qf7x0E1dqHhBOgiYK0y1-284">
          <mxGeometry width="79" height="30" as="geometry">
            <mxRectangle width="79" height="30" as="alternateBounds" />
          </mxGeometry>
        </mxCell>
        <mxCell id="Qf7x0E1dqHhBOgiYK0y1-286" value="country" style="shape=partialRectangle;html=1;connectable=0;fillColor=default;top=0;left=0;bottom=0;right=0;align=left;spacingLeft=6;overflow=hidden;strokeColor=default;fontSize=12;labelBackgroundColor=default;gradientColor=none;perimeterSpacing=0;shadow=0;gradientDirection=north;labelBorderColor=none;fontFamily=Roboto;fontSource=https%3A%2F%2Ffonts.googleapis.com%2Fcss%3Ffamily%3DRoboto;whiteSpace=wrap;" vertex="1" parent="Qf7x0E1dqHhBOgiYK0y1-284">
          <mxGeometry x="79" width="240" height="30" as="geometry">
            <mxRectangle width="240" height="30" as="alternateBounds" />
          </mxGeometry>
        </mxCell>
        <mxCell id="Qf7x0E1dqHhBOgiYK0y1-287" value="" style="shape=tableRow;horizontal=0;startSize=0;swimlaneHead=0;swimlaneBody=0;top=0;left=0;bottom=0;right=0;collapsible=0;dropTarget=0;fillColor=none;points=[[0,0.5],[1,0.5]];portConstraint=eastwest;strokeColor=inherit;fontSize=16;labelBackgroundColor=default;whiteSpace=wrap;" vertex="1" parent="Qf7x0E1dqHhBOgiYK0y1-277">
          <mxGeometry y="120" width="319" height="30" as="geometry" />
        </mxCell>
        <mxCell id="Qf7x0E1dqHhBOgiYK0y1-288" value="char(3)" style="shape=partialRectangle;html=1;connectable=0;fillColor=default;top=0;left=0;bottom=0;right=0;overflow=hidden;strokeColor=default;fontSize=12;labelBackgroundColor=default;gradientColor=none;perimeterSpacing=0;shadow=0;gradientDirection=north;labelBorderColor=none;fontFamily=Roboto;fontSource=https%3A%2F%2Ffonts.googleapis.com%2Fcss%3Ffamily%3DRoboto;whiteSpace=wrap;" vertex="1" parent="Qf7x0E1dqHhBOgiYK0y1-287">
          <mxGeometry width="79" height="30" as="geometry">
            <mxRectangle width="79" height="30" as="alternateBounds" />
          </mxGeometry>
        </mxCell>
        <mxCell id="Qf7x0E1dqHhBOgiYK0y1-289" value="currency (e.g., &quot;USD&quot;, &quot;EUR&quot;)" style="shape=partialRectangle;html=1;connectable=0;fillColor=default;top=0;left=0;bottom=0;right=0;align=left;spacingLeft=6;overflow=hidden;strokeColor=default;fontSize=12;labelBackgroundColor=default;gradientColor=none;perimeterSpacing=0;shadow=0;gradientDirection=north;labelBorderColor=none;fontFamily=Roboto;fontSource=https%3A%2F%2Ffonts.googleapis.com%2Fcss%3Ffamily%3DRoboto;whiteSpace=wrap;" vertex="1" parent="Qf7x0E1dqHhBOgiYK0y1-287">
          <mxGeometry x="79" width="240" height="30" as="geometry">
            <mxRectangle width="240" height="30" as="alternateBounds" />
          </mxGeometry>
        </mxCell>
        <mxCell id="Qf7x0E1dqHhBOgiYK0y1-290" value="" style="shape=tableRow;horizontal=0;startSize=0;swimlaneHead=0;swimlaneBody=0;top=0;left=0;bottom=0;right=0;collapsible=0;dropTarget=0;fillColor=none;points=[[0,0.5],[1,0.5]];portConstraint=eastwest;strokeColor=inherit;fontSize=16;labelBackgroundColor=default;whiteSpace=wrap;" vertex="1" parent="Qf7x0E1dqHhBOgiYK0y1-277">
          <mxGeometry y="150" width="319" height="30" as="geometry" />
        </mxCell>
        <mxCell id="Qf7x0E1dqHhBOgiYK0y1-291" value="varchar(200)" style="shape=partialRectangle;html=1;connectable=0;fillColor=default;top=0;left=0;bottom=0;right=0;overflow=hidden;strokeColor=default;fontSize=12;labelBackgroundColor=default;gradientColor=none;perimeterSpacing=0;shadow=0;gradientDirection=north;labelBorderColor=none;fontFamily=Roboto;fontSource=https%3A%2F%2Ffonts.googleapis.com%2Fcss%3Ffamily%3DRoboto;whiteSpace=wrap;" vertex="1" parent="Qf7x0E1dqHhBOgiYK0y1-290">
          <mxGeometry width="79" height="30" as="geometry">
            <mxRectangle width="79" height="30" as="alternateBounds" />
          </mxGeometry>
        </mxCell>
        <mxCell id="Qf7x0E1dqHhBOgiYK0y1-292" value="address" style="shape=partialRectangle;html=1;connectable=0;fillColor=default;top=0;left=0;bottom=0;right=0;align=left;spacingLeft=6;overflow=hidden;strokeColor=default;fontSize=12;labelBackgroundColor=default;gradientColor=none;perimeterSpacing=0;shadow=0;gradientDirection=north;labelBorderColor=none;fontFamily=Roboto;fontSource=https%3A%2F%2Ffonts.googleapis.com%2Fcss%3Ffamily%3DRoboto;whiteSpace=wrap;" vertex="1" parent="Qf7x0E1dqHhBOgiYK0y1-290">
          <mxGeometry x="79" width="240" height="30" as="geometry">
            <mxRectangle width="240" height="30" as="alternateBounds" />
          </mxGeometry>
        </mxCell>
        <mxCell id="Qf7x0E1dqHhBOgiYK0y1-293" value="Projects" style="shape=table;startSize=30;container=1;collapsible=0;childLayout=tableLayout;fixedRows=1;rowLines=0;fontStyle=1;strokeColor=default;fontSize=16;points=[[0,0,0,0,0],[0,0.25,0,0,0],[0,0.5,0,0,0],[0,0.75,0,0,0],[0,1,0,0,0],[0.25,0,0,0,0],[0.25,1,0,0,0],[0.5,0,0,0,0],[0.5,1,0,0,0],[0.75,0,0,0,0],[0.75,1,0,0,0],[1,0,0,0,0],[1,0.25,0,0,0],[1,0.5,0,0,0],[1,0.75,0,0,0],[1,1,0,0,0]];labelBackgroundColor=default;whiteSpace=wrap;" vertex="1" parent="WIyWlLk6GJQsqaUBKTNV-1">
          <mxGeometry x="20" y="120" width="319" height="210" as="geometry" />
        </mxCell>
        <mxCell id="Qf7x0E1dqHhBOgiYK0y1-294" value="" style="shape=tableRow;horizontal=0;startSize=0;swimlaneHead=0;swimlaneBody=0;top=0;left=0;bottom=0;right=0;collapsible=0;dropTarget=0;fillColor=none;points=[[0,0.5],[1,0.5]];portConstraint=eastwest;strokeColor=inherit;fontSize=16;labelBackgroundColor=default;whiteSpace=wrap;" vertex="1" parent="Qf7x0E1dqHhBOgiYK0y1-293">
          <mxGeometry y="30" width="319" height="30" as="geometry" />
        </mxCell>
        <mxCell id="Qf7x0E1dqHhBOgiYK0y1-295" value="int" style="shape=partialRectangle;html=1;connectable=0;fillColor=default;top=0;left=0;bottom=0;right=0;overflow=hidden;pointerEvents=1;strokeColor=default;fontSize=12;labelBackgroundColor=default;gradientColor=none;perimeterSpacing=0;shadow=0;gradientDirection=north;labelBorderColor=none;fontFamily=Roboto;fontSource=https%3A%2F%2Ffonts.googleapis.com%2Fcss%3Ffamily%3DRoboto;whiteSpace=wrap;" vertex="1" parent="Qf7x0E1dqHhBOgiYK0y1-294">
          <mxGeometry width="79" height="30" as="geometry">
            <mxRectangle width="79" height="30" as="alternateBounds" />
          </mxGeometry>
        </mxCell>
        <mxCell id="Qf7x0E1dqHhBOgiYK0y1-296" value="projectID (PK, AUTO_INCREMENT)" style="shape=partialRectangle;html=1;connectable=0;fillColor=default;top=0;left=0;bottom=0;right=0;align=left;spacingLeft=6;overflow=hidden;strokeColor=default;fontSize=12;labelBackgroundColor=default;gradientColor=none;perimeterSpacing=0;shadow=0;gradientDirection=north;labelBorderColor=none;fontFamily=Roboto;fontSource=https%3A%2F%2Ffonts.googleapis.com%2Fcss%3Ffamily%3DRoboto;whiteSpace=wrap;" vertex="1" parent="Qf7x0E1dqHhBOgiYK0y1-294">
          <mxGeometry x="79" width="240" height="30" as="geometry">
            <mxRectangle width="240" height="30" as="alternateBounds" />
          </mxGeometry>
        </mxCell>
        <mxCell id="Qf7x0E1dqHhBOgiYK0y1-297" value="" style="shape=tableRow;horizontal=0;startSize=0;swimlaneHead=0;swimlaneBody=0;top=0;left=0;bottom=0;right=0;collapsible=0;dropTarget=0;fillColor=none;points=[[0,0.5],[1,0.5]];portConstraint=eastwest;strokeColor=inherit;fontSize=16;labelBackgroundColor=default;whiteSpace=wrap;" vertex="1" parent="Qf7x0E1dqHhBOgiYK0y1-293">
          <mxGeometry y="60" width="319" height="30" as="geometry" />
        </mxCell>
        <mxCell id="Qf7x0E1dqHhBOgiYK0y1-298" value="varchar(100)" style="shape=partialRectangle;html=1;connectable=0;fillColor=default;top=0;left=0;bottom=0;right=0;overflow=hidden;strokeColor=default;fontSize=12;labelBackgroundColor=default;gradientColor=none;perimeterSpacing=0;shadow=0;gradientDirection=north;labelBorderColor=none;fontFamily=Roboto;fontSource=https%3A%2F%2Ffonts.googleapis.com%2Fcss%3Ffamily%3DRoboto;whiteSpace=wrap;" vertex="1" parent="Qf7x0E1dqHhBOgiYK0y1-297">
          <mxGeometry width="79" height="30" as="geometry">
            <mxRectangle width="79" height="30" as="alternateBounds" />
          </mxGeometry>
        </mxCell>
        <mxCell id="Qf7x0E1dqHhBOgiYK0y1-299" value="projectName" style="shape=partialRectangle;html=1;connectable=0;fillColor=default;top=0;left=0;bottom=0;right=0;align=left;spacingLeft=6;overflow=hidden;strokeColor=default;fontSize=12;labelBackgroundColor=default;gradientColor=none;perimeterSpacing=0;shadow=0;gradientDirection=north;labelBorderColor=none;fontFamily=Roboto;fontSource=https%3A%2F%2Ffonts.googleapis.com%2Fcss%3Ffamily%3DRoboto;whiteSpace=wrap;" vertex="1" parent="Qf7x0E1dqHhBOgiYK0y1-297">
          <mxGeometry x="79" width="240" height="30" as="geometry">
            <mxRectangle width="240" height="30" as="alternateBounds" />
          </mxGeometry>
        </mxCell>
        <mxCell id="Qf7x0E1dqHhBOgiYK0y1-300" value="" style="shape=tableRow;horizontal=0;startSize=0;swimlaneHead=0;swimlaneBody=0;top=0;left=0;bottom=0;right=0;collapsible=0;dropTarget=0;fillColor=none;points=[[0,0.5],[1,0.5]];portConstraint=eastwest;strokeColor=inherit;fontSize=16;labelBackgroundColor=default;whiteSpace=wrap;" vertex="1" parent="Qf7x0E1dqHhBOgiYK0y1-293">
          <mxGeometry y="90" width="319" height="30" as="geometry" />
        </mxCell>
        <mxCell id="Qf7x0E1dqHhBOgiYK0y1-301" value="date" style="shape=partialRectangle;html=1;connectable=0;fillColor=default;top=0;left=0;bottom=0;right=0;overflow=hidden;strokeColor=default;fontSize=12;labelBackgroundColor=default;gradientColor=none;perimeterSpacing=0;shadow=0;gradientDirection=north;labelBorderColor=none;fontFamily=Roboto;fontSource=https%3A%2F%2Ffonts.googleapis.com%2Fcss%3Ffamily%3DRoboto;whiteSpace=wrap;" vertex="1" parent="Qf7x0E1dqHhBOgiYK0y1-300">
          <mxGeometry width="79" height="30" as="geometry">
            <mxRectangle width="79" height="30" as="alternateBounds" />
          </mxGeometry>
        </mxCell>
        <mxCell id="Qf7x0E1dqHhBOgiYK0y1-302" value="startDate" style="shape=partialRectangle;html=1;connectable=0;fillColor=default;top=0;left=0;bottom=0;right=0;align=left;spacingLeft=6;overflow=hidden;strokeColor=default;fontSize=12;labelBackgroundColor=default;gradientColor=none;perimeterSpacing=0;shadow=0;gradientDirection=north;labelBorderColor=none;fontFamily=Roboto;fontSource=https%3A%2F%2Ffonts.googleapis.com%2Fcss%3Ffamily%3DRoboto;whiteSpace=wrap;" vertex="1" parent="Qf7x0E1dqHhBOgiYK0y1-300">
          <mxGeometry x="79" width="240" height="30" as="geometry">
            <mxRectangle width="240" height="30" as="alternateBounds" />
          </mxGeometry>
        </mxCell>
        <mxCell id="Qf7x0E1dqHhBOgiYK0y1-303" value="" style="shape=tableRow;horizontal=0;startSize=0;swimlaneHead=0;swimlaneBody=0;top=0;left=0;bottom=0;right=0;collapsible=0;dropTarget=0;fillColor=none;points=[[0,0.5],[1,0.5]];portConstraint=eastwest;strokeColor=inherit;fontSize=16;labelBackgroundColor=default;whiteSpace=wrap;" vertex="1" parent="Qf7x0E1dqHhBOgiYK0y1-293">
          <mxGeometry y="120" width="319" height="30" as="geometry" />
        </mxCell>
        <mxCell id="Qf7x0E1dqHhBOgiYK0y1-304" value="date" style="shape=partialRectangle;html=1;connectable=0;fillColor=default;top=0;left=0;bottom=0;right=0;overflow=hidden;strokeColor=default;fontSize=12;labelBackgroundColor=default;gradientColor=none;perimeterSpacing=0;shadow=0;gradientDirection=north;labelBorderColor=none;fontFamily=Roboto;fontSource=https%3A%2F%2Ffonts.googleapis.com%2Fcss%3Ffamily%3DRoboto;whiteSpace=wrap;" vertex="1" parent="Qf7x0E1dqHhBOgiYK0y1-303">
          <mxGeometry width="79" height="30" as="geometry">
            <mxRectangle width="79" height="30" as="alternateBounds" />
          </mxGeometry>
        </mxCell>
        <mxCell id="Qf7x0E1dqHhBOgiYK0y1-305" value="endDate (NULLABLE)" style="shape=partialRectangle;html=1;connectable=0;fillColor=default;top=0;left=0;bottom=0;right=0;align=left;spacingLeft=6;overflow=hidden;strokeColor=default;fontSize=12;labelBackgroundColor=default;gradientColor=none;perimeterSpacing=0;shadow=0;gradientDirection=north;labelBorderColor=none;fontFamily=Roboto;fontSource=https%3A%2F%2Ffonts.googleapis.com%2Fcss%3Ffamily%3DRoboto;whiteSpace=wrap;" vertex="1" parent="Qf7x0E1dqHhBOgiYK0y1-303">
          <mxGeometry x="79" width="240" height="30" as="geometry">
            <mxRectangle width="240" height="30" as="alternateBounds" />
          </mxGeometry>
        </mxCell>
        <mxCell id="Qf7x0E1dqHhBOgiYK0y1-306" value="" style="shape=tableRow;horizontal=0;startSize=0;swimlaneHead=0;swimlaneBody=0;top=0;left=0;bottom=0;right=0;collapsible=0;dropTarget=0;fillColor=none;points=[[0,0.5],[1,0.5]];portConstraint=eastwest;strokeColor=inherit;fontSize=16;labelBackgroundColor=default;whiteSpace=wrap;" vertex="1" parent="Qf7x0E1dqHhBOgiYK0y1-293">
          <mxGeometry y="150" width="319" height="30" as="geometry" />
        </mxCell>
        <mxCell id="Qf7x0E1dqHhBOgiYK0y1-307" value="decimal(15,2)" style="shape=partialRectangle;html=1;connectable=0;fillColor=default;top=0;left=0;bottom=0;right=0;overflow=hidden;strokeColor=default;fontSize=12;labelBackgroundColor=default;gradientColor=none;perimeterSpacing=0;shadow=0;gradientDirection=north;labelBorderColor=none;fontFamily=Roboto;fontSource=https%3A%2F%2Ffonts.googleapis.com%2Fcss%3Ffamily%3DRoboto;whiteSpace=wrap;" vertex="1" parent="Qf7x0E1dqHhBOgiYK0y1-306">
          <mxGeometry width="79" height="30" as="geometry">
            <mxRectangle width="79" height="30" as="alternateBounds" />
          </mxGeometry>
        </mxCell>
        <mxCell id="Qf7x0E1dqHhBOgiYK0y1-308" value="budget" style="shape=partialRectangle;html=1;connectable=0;fillColor=default;top=0;left=0;bottom=0;right=0;align=left;spacingLeft=6;overflow=hidden;strokeColor=default;fontSize=12;labelBackgroundColor=default;gradientColor=none;perimeterSpacing=0;shadow=0;gradientDirection=north;labelBorderColor=none;fontFamily=Roboto;fontSource=https%3A%2F%2Ffonts.googleapis.com%2Fcss%3Ffamily%3DRoboto;whiteSpace=wrap;" vertex="1" parent="Qf7x0E1dqHhBOgiYK0y1-306">
          <mxGeometry x="79" width="240" height="30" as="geometry">
            <mxRectangle width="240" height="30" as="alternateBounds" />
          </mxGeometry>
        </mxCell>
        <mxCell id="Qf7x0E1dqHhBOgiYK0y1-309" value="" style="shape=tableRow;horizontal=0;startSize=0;swimlaneHead=0;swimlaneBody=0;top=0;left=0;bottom=0;right=0;collapsible=0;dropTarget=0;fillColor=none;points=[[0,0.5],[1,0.5]];portConstraint=eastwest;strokeColor=inherit;fontSize=16;labelBackgroundColor=default;whiteSpace=wrap;" vertex="1" parent="Qf7x0E1dqHhBOgiYK0y1-293">
          <mxGeometry y="180" width="319" height="30" as="geometry" />
        </mxCell>
        <mxCell id="Qf7x0E1dqHhBOgiYK0y1-310" value="int" style="shape=partialRectangle;html=1;connectable=0;fillColor=default;top=0;left=0;bottom=0;right=0;overflow=hidden;strokeColor=default;fontSize=12;labelBackgroundColor=default;gradientColor=none;perimeterSpacing=0;shadow=0;gradientDirection=north;labelBorderColor=none;fontFamily=Roboto;fontSource=https%3A%2F%2Ffonts.googleapis.com%2Fcss%3Ffamily%3DRoboto;whiteSpace=wrap;" vertex="1" parent="Qf7x0E1dqHhBOgiYK0y1-309">
          <mxGeometry width="79" height="30" as="geometry">
            <mxRectangle width="79" height="30" as="alternateBounds" />
          </mxGeometry>
        </mxCell>
        <mxCell id="Qf7x0E1dqHhBOgiYK0y1-311" value="departmentID (FK to Departments)" style="shape=partialRectangle;html=1;connectable=0;fillColor=default;top=0;left=0;bottom=0;right=0;align=left;spacingLeft=6;overflow=hidden;strokeColor=default;fontSize=12;labelBackgroundColor=default;gradientColor=none;perimeterSpacing=0;shadow=0;gradientDirection=north;labelBorderColor=none;fontFamily=Roboto;fontSource=https%3A%2F%2Ffonts.googleapis.com%2Fcss%3Ffamily%3DRoboto;whiteSpace=wrap;" vertex="1" parent="Qf7x0E1dqHhBOgiYK0y1-309">
          <mxGeometry x="79" width="240" height="30" as="geometry">
            <mxRectangle width="240" height="30" as="alternateBounds" />
          </mxGeometry>
        </mxCell>
        <mxCell id="Qf7x0E1dqHhBOgiYK0y1-327" value="Employee Projects (Junction Table)" style="shape=table;startSize=30;container=1;collapsible=0;childLayout=tableLayout;fixedRows=1;rowLines=0;fontStyle=1;strokeColor=default;fontSize=16;points=[[0,0,0,0,0],[0,0.25,0,0,0],[0,0.5,0,0,0],[0,0.75,0,0,0],[0,1,0,0,0],[0.25,0,0,0,0],[0.25,1,0,0,0],[0.5,0,0,0,0],[0.5,1,0,0,0],[0.75,0,0,0,0],[0.75,1,0,0,0],[1,0,0,0,0],[1,0.25,0,0,0],[1,0.5,0,0,0],[1,0.75,0,0,0],[1,1,0,0,0]];labelBackgroundColor=default;whiteSpace=wrap;" vertex="1" parent="WIyWlLk6GJQsqaUBKTNV-1">
          <mxGeometry x="760" y="510" width="319" height="180" as="geometry" />
        </mxCell>
        <mxCell id="Qf7x0E1dqHhBOgiYK0y1-328" value="" style="shape=tableRow;horizontal=0;startSize=0;swimlaneHead=0;swimlaneBody=0;top=0;left=0;bottom=0;right=0;collapsible=0;dropTarget=0;fillColor=none;points=[[0,0.5],[1,0.5]];portConstraint=eastwest;strokeColor=inherit;fontSize=16;labelBackgroundColor=default;whiteSpace=wrap;" vertex="1" parent="Qf7x0E1dqHhBOgiYK0y1-327">
          <mxGeometry y="30" width="319" height="30" as="geometry" />
        </mxCell>
        <mxCell id="Qf7x0E1dqHhBOgiYK0y1-329" value="int" style="shape=partialRectangle;html=1;connectable=0;fillColor=default;top=0;left=0;bottom=0;right=0;overflow=hidden;pointerEvents=1;strokeColor=default;fontSize=12;labelBackgroundColor=default;gradientColor=none;perimeterSpacing=0;shadow=0;gradientDirection=north;labelBorderColor=none;fontFamily=Roboto;fontSource=https%3A%2F%2Ffonts.googleapis.com%2Fcss%3Ffamily%3DRoboto;whiteSpace=wrap;" vertex="1" parent="Qf7x0E1dqHhBOgiYK0y1-328">
          <mxGeometry width="79" height="30" as="geometry">
            <mxRectangle width="79" height="30" as="alternateBounds" />
          </mxGeometry>
        </mxCell>
        <mxCell id="Qf7x0E1dqHhBOgiYK0y1-330" value="employeeProjectID (PK, AUTO_INCREMENT)" style="shape=partialRectangle;html=1;connectable=0;fillColor=default;top=0;left=0;bottom=0;right=0;align=left;spacingLeft=6;overflow=hidden;strokeColor=default;fontSize=12;labelBackgroundColor=default;gradientColor=none;perimeterSpacing=0;shadow=0;gradientDirection=north;labelBorderColor=none;fontFamily=Roboto;fontSource=https%3A%2F%2Ffonts.googleapis.com%2Fcss%3Ffamily%3DRoboto;whiteSpace=wrap;" vertex="1" parent="Qf7x0E1dqHhBOgiYK0y1-328">
          <mxGeometry x="79" width="240" height="30" as="geometry">
            <mxRectangle width="240" height="30" as="alternateBounds" />
          </mxGeometry>
        </mxCell>
        <mxCell id="Qf7x0E1dqHhBOgiYK0y1-331" value="" style="shape=tableRow;horizontal=0;startSize=0;swimlaneHead=0;swimlaneBody=0;top=0;left=0;bottom=0;right=0;collapsible=0;dropTarget=0;fillColor=none;points=[[0,0.5],[1,0.5]];portConstraint=eastwest;strokeColor=inherit;fontSize=16;labelBackgroundColor=default;whiteSpace=wrap;" vertex="1" parent="Qf7x0E1dqHhBOgiYK0y1-327">
          <mxGeometry y="60" width="319" height="30" as="geometry" />
        </mxCell>
        <mxCell id="Qf7x0E1dqHhBOgiYK0y1-332" value="int" style="shape=partialRectangle;html=1;connectable=0;fillColor=default;top=0;left=0;bottom=0;right=0;overflow=hidden;strokeColor=default;fontSize=12;labelBackgroundColor=default;gradientColor=none;perimeterSpacing=0;shadow=0;gradientDirection=north;labelBorderColor=none;fontFamily=Roboto;fontSource=https%3A%2F%2Ffonts.googleapis.com%2Fcss%3Ffamily%3DRoboto;whiteSpace=wrap;" vertex="1" parent="Qf7x0E1dqHhBOgiYK0y1-331">
          <mxGeometry width="79" height="30" as="geometry">
            <mxRectangle width="79" height="30" as="alternateBounds" />
          </mxGeometry>
        </mxCell>
        <mxCell id="Qf7x0E1dqHhBOgiYK0y1-333" value="employeeID (FK to Employees)" style="shape=partialRectangle;html=1;connectable=0;fillColor=default;top=0;left=0;bottom=0;right=0;align=left;spacingLeft=6;overflow=hidden;strokeColor=default;fontSize=12;labelBackgroundColor=default;gradientColor=none;perimeterSpacing=0;shadow=0;gradientDirection=north;labelBorderColor=none;fontFamily=Roboto;fontSource=https%3A%2F%2Ffonts.googleapis.com%2Fcss%3Ffamily%3DRoboto;whiteSpace=wrap;" vertex="1" parent="Qf7x0E1dqHhBOgiYK0y1-331">
          <mxGeometry x="79" width="240" height="30" as="geometry">
            <mxRectangle width="240" height="30" as="alternateBounds" />
          </mxGeometry>
        </mxCell>
        <mxCell id="Qf7x0E1dqHhBOgiYK0y1-334" value="" style="shape=tableRow;horizontal=0;startSize=0;swimlaneHead=0;swimlaneBody=0;top=0;left=0;bottom=0;right=0;collapsible=0;dropTarget=0;fillColor=none;points=[[0,0.5],[1,0.5]];portConstraint=eastwest;strokeColor=inherit;fontSize=16;labelBackgroundColor=default;whiteSpace=wrap;" vertex="1" parent="Qf7x0E1dqHhBOgiYK0y1-327">
          <mxGeometry y="90" width="319" height="30" as="geometry" />
        </mxCell>
        <mxCell id="Qf7x0E1dqHhBOgiYK0y1-335" value="int" style="shape=partialRectangle;html=1;connectable=0;fillColor=default;top=0;left=0;bottom=0;right=0;overflow=hidden;strokeColor=default;fontSize=12;labelBackgroundColor=default;gradientColor=none;perimeterSpacing=0;shadow=0;gradientDirection=north;labelBorderColor=none;fontFamily=Roboto;fontSource=https%3A%2F%2Ffonts.googleapis.com%2Fcss%3Ffamily%3DRoboto;whiteSpace=wrap;" vertex="1" parent="Qf7x0E1dqHhBOgiYK0y1-334">
          <mxGeometry width="79" height="30" as="geometry">
            <mxRectangle width="79" height="30" as="alternateBounds" />
          </mxGeometry>
        </mxCell>
        <mxCell id="Qf7x0E1dqHhBOgiYK0y1-336" value="projectID (FK to Projects)" style="shape=partialRectangle;html=1;connectable=0;fillColor=default;top=0;left=0;bottom=0;right=0;align=left;spacingLeft=6;overflow=hidden;strokeColor=default;fontSize=12;labelBackgroundColor=default;gradientColor=none;perimeterSpacing=0;shadow=0;gradientDirection=north;labelBorderColor=none;fontFamily=Roboto;fontSource=https%3A%2F%2Ffonts.googleapis.com%2Fcss%3Ffamily%3DRoboto;whiteSpace=wrap;" vertex="1" parent="Qf7x0E1dqHhBOgiYK0y1-334">
          <mxGeometry x="79" width="240" height="30" as="geometry">
            <mxRectangle width="240" height="30" as="alternateBounds" />
          </mxGeometry>
        </mxCell>
        <mxCell id="Qf7x0E1dqHhBOgiYK0y1-337" value="" style="shape=tableRow;horizontal=0;startSize=0;swimlaneHead=0;swimlaneBody=0;top=0;left=0;bottom=0;right=0;collapsible=0;dropTarget=0;fillColor=none;points=[[0,0.5],[1,0.5]];portConstraint=eastwest;strokeColor=inherit;fontSize=16;labelBackgroundColor=default;whiteSpace=wrap;" vertex="1" parent="Qf7x0E1dqHhBOgiYK0y1-327">
          <mxGeometry y="120" width="319" height="30" as="geometry" />
        </mxCell>
        <mxCell id="Qf7x0E1dqHhBOgiYK0y1-338" value="varchar(50)" style="shape=partialRectangle;html=1;connectable=0;fillColor=default;top=0;left=0;bottom=0;right=0;overflow=hidden;strokeColor=default;fontSize=12;labelBackgroundColor=default;gradientColor=none;perimeterSpacing=0;shadow=0;gradientDirection=north;labelBorderColor=none;fontFamily=Roboto;fontSource=https%3A%2F%2Ffonts.googleapis.com%2Fcss%3Ffamily%3DRoboto;whiteSpace=wrap;" vertex="1" parent="Qf7x0E1dqHhBOgiYK0y1-337">
          <mxGeometry width="79" height="30" as="geometry">
            <mxRectangle width="79" height="30" as="alternateBounds" />
          </mxGeometry>
        </mxCell>
        <mxCell id="Qf7x0E1dqHhBOgiYK0y1-339" value="roleInProject" style="shape=partialRectangle;html=1;connectable=0;fillColor=default;top=0;left=0;bottom=0;right=0;align=left;spacingLeft=6;overflow=hidden;strokeColor=default;fontSize=12;labelBackgroundColor=default;gradientColor=none;perimeterSpacing=0;shadow=0;gradientDirection=north;labelBorderColor=none;fontFamily=Roboto;fontSource=https%3A%2F%2Ffonts.googleapis.com%2Fcss%3Ffamily%3DRoboto;whiteSpace=wrap;" vertex="1" parent="Qf7x0E1dqHhBOgiYK0y1-337">
          <mxGeometry x="79" width="240" height="30" as="geometry">
            <mxRectangle width="240" height="30" as="alternateBounds" />
          </mxGeometry>
        </mxCell>
        <mxCell id="Qf7x0E1dqHhBOgiYK0y1-340" value="" style="shape=tableRow;horizontal=0;startSize=0;swimlaneHead=0;swimlaneBody=0;top=0;left=0;bottom=0;right=0;collapsible=0;dropTarget=0;fillColor=none;points=[[0,0.5],[1,0.5]];portConstraint=eastwest;strokeColor=inherit;fontSize=16;labelBackgroundColor=default;whiteSpace=wrap;" vertex="1" parent="Qf7x0E1dqHhBOgiYK0y1-327">
          <mxGeometry y="150" width="319" height="30" as="geometry" />
        </mxCell>
        <mxCell id="Qf7x0E1dqHhBOgiYK0y1-341" value="int" style="shape=partialRectangle;html=1;connectable=0;fillColor=default;top=0;left=0;bottom=0;right=0;overflow=hidden;strokeColor=default;fontSize=12;labelBackgroundColor=default;gradientColor=none;perimeterSpacing=0;shadow=0;gradientDirection=north;labelBorderColor=none;fontFamily=Roboto;fontSource=https%3A%2F%2Ffonts.googleapis.com%2Fcss%3Ffamily%3DRoboto;whiteSpace=wrap;" vertex="1" parent="Qf7x0E1dqHhBOgiYK0y1-340">
          <mxGeometry width="79" height="30" as="geometry">
            <mxRectangle width="79" height="30" as="alternateBounds" />
          </mxGeometry>
        </mxCell>
        <mxCell id="Qf7x0E1dqHhBOgiYK0y1-342" value="hoursAllocated" style="shape=partialRectangle;html=1;connectable=0;fillColor=default;top=0;left=0;bottom=0;right=0;align=left;spacingLeft=6;overflow=hidden;strokeColor=default;fontSize=12;labelBackgroundColor=default;gradientColor=none;perimeterSpacing=0;shadow=0;gradientDirection=north;labelBorderColor=none;fontFamily=Roboto;fontSource=https%3A%2F%2Ffonts.googleapis.com%2Fcss%3Ffamily%3DRoboto;whiteSpace=wrap;" vertex="1" parent="Qf7x0E1dqHhBOgiYK0y1-340">
          <mxGeometry x="79" width="240" height="30" as="geometry">
            <mxRectangle width="240" height="30" as="alternateBounds" />
          </mxGeometry>
        </mxCell>
        <mxCell id="Qf7x0E1dqHhBOgiYK0y1-343" value="Training Sessions" style="shape=table;startSize=30;container=1;collapsible=0;childLayout=tableLayout;fixedRows=1;rowLines=0;fontStyle=1;strokeColor=default;fontSize=16;points=[[0,0,0,0,0],[0,0.25,0,0,0],[0,0.5,0,0,0],[0,0.75,0,0,0],[0,1,0,0,0],[0.25,0,0,0,0],[0.25,1,0,0,0],[0.5,0,0,0,0],[0.5,1,0,0,0],[0.75,0,0,0,0],[0.75,1,0,0,0],[1,0,0,0,0],[1,0.25,0,0,0],[1,0.5,0,0,0],[1,0.75,0,0,0],[1,1,0,0,0]];labelBackgroundColor=default;whiteSpace=wrap;" vertex="1" parent="WIyWlLk6GJQsqaUBKTNV-1">
          <mxGeometry x="20" y="360" width="319" height="240" as="geometry" />
        </mxCell>
        <mxCell id="Qf7x0E1dqHhBOgiYK0y1-344" value="" style="shape=tableRow;horizontal=0;startSize=0;swimlaneHead=0;swimlaneBody=0;top=0;left=0;bottom=0;right=0;collapsible=0;dropTarget=0;fillColor=none;points=[[0,0.5],[1,0.5]];portConstraint=eastwest;strokeColor=inherit;fontSize=16;labelBackgroundColor=default;whiteSpace=wrap;" vertex="1" parent="Qf7x0E1dqHhBOgiYK0y1-343">
          <mxGeometry y="30" width="319" height="30" as="geometry" />
        </mxCell>
        <mxCell id="Qf7x0E1dqHhBOgiYK0y1-345" value="int" style="shape=partialRectangle;html=1;connectable=0;fillColor=default;top=0;left=0;bottom=0;right=0;overflow=hidden;pointerEvents=1;strokeColor=default;fontSize=12;labelBackgroundColor=default;gradientColor=none;perimeterSpacing=0;shadow=0;gradientDirection=north;labelBorderColor=none;fontFamily=Roboto;fontSource=https%3A%2F%2Ffonts.googleapis.com%2Fcss%3Ffamily%3DRoboto;whiteSpace=wrap;" vertex="1" parent="Qf7x0E1dqHhBOgiYK0y1-344">
          <mxGeometry width="79" height="30" as="geometry">
            <mxRectangle width="79" height="30" as="alternateBounds" />
          </mxGeometry>
        </mxCell>
        <mxCell id="Qf7x0E1dqHhBOgiYK0y1-346" value="trainingID (PK, AUTO_INCREMENT)" style="shape=partialRectangle;html=1;connectable=0;fillColor=default;top=0;left=0;bottom=0;right=0;align=left;spacingLeft=6;overflow=hidden;strokeColor=default;fontSize=12;labelBackgroundColor=default;gradientColor=none;perimeterSpacing=0;shadow=0;gradientDirection=north;labelBorderColor=none;fontFamily=Roboto;fontSource=https%3A%2F%2Ffonts.googleapis.com%2Fcss%3Ffamily%3DRoboto;whiteSpace=wrap;" vertex="1" parent="Qf7x0E1dqHhBOgiYK0y1-344">
          <mxGeometry x="79" width="240" height="30" as="geometry">
            <mxRectangle width="240" height="30" as="alternateBounds" />
          </mxGeometry>
        </mxCell>
        <mxCell id="Qf7x0E1dqHhBOgiYK0y1-347" value="" style="shape=tableRow;horizontal=0;startSize=0;swimlaneHead=0;swimlaneBody=0;top=0;left=0;bottom=0;right=0;collapsible=0;dropTarget=0;fillColor=none;points=[[0,0.5],[1,0.5]];portConstraint=eastwest;strokeColor=inherit;fontSize=16;labelBackgroundColor=default;whiteSpace=wrap;" vertex="1" parent="Qf7x0E1dqHhBOgiYK0y1-343">
          <mxGeometry y="60" width="319" height="30" as="geometry" />
        </mxCell>
        <mxCell id="Qf7x0E1dqHhBOgiYK0y1-348" value="varchar(100)" style="shape=partialRectangle;html=1;connectable=0;fillColor=default;top=0;left=0;bottom=0;right=0;overflow=hidden;strokeColor=default;fontSize=12;labelBackgroundColor=default;gradientColor=none;perimeterSpacing=0;shadow=0;gradientDirection=north;labelBorderColor=none;fontFamily=Roboto;fontSource=https%3A%2F%2Ffonts.googleapis.com%2Fcss%3Ffamily%3DRoboto;whiteSpace=wrap;" vertex="1" parent="Qf7x0E1dqHhBOgiYK0y1-347">
          <mxGeometry width="79" height="30" as="geometry">
            <mxRectangle width="79" height="30" as="alternateBounds" />
          </mxGeometry>
        </mxCell>
        <mxCell id="Qf7x0E1dqHhBOgiYK0y1-349" value="topic" style="shape=partialRectangle;html=1;connectable=0;fillColor=default;top=0;left=0;bottom=0;right=0;align=left;spacingLeft=6;overflow=hidden;strokeColor=default;fontSize=12;labelBackgroundColor=default;gradientColor=none;perimeterSpacing=0;shadow=0;gradientDirection=north;labelBorderColor=none;fontFamily=Roboto;fontSource=https%3A%2F%2Ffonts.googleapis.com%2Fcss%3Ffamily%3DRoboto;whiteSpace=wrap;" vertex="1" parent="Qf7x0E1dqHhBOgiYK0y1-347">
          <mxGeometry x="79" width="240" height="30" as="geometry">
            <mxRectangle width="240" height="30" as="alternateBounds" />
          </mxGeometry>
        </mxCell>
        <mxCell id="Qf7x0E1dqHhBOgiYK0y1-350" value="" style="shape=tableRow;horizontal=0;startSize=0;swimlaneHead=0;swimlaneBody=0;top=0;left=0;bottom=0;right=0;collapsible=0;dropTarget=0;fillColor=none;points=[[0,0.5],[1,0.5]];portConstraint=eastwest;strokeColor=inherit;fontSize=16;labelBackgroundColor=default;whiteSpace=wrap;" vertex="1" parent="Qf7x0E1dqHhBOgiYK0y1-343">
          <mxGeometry y="90" width="319" height="30" as="geometry" />
        </mxCell>
        <mxCell id="Qf7x0E1dqHhBOgiYK0y1-351" value="text" style="shape=partialRectangle;html=1;connectable=0;fillColor=default;top=0;left=0;bottom=0;right=0;overflow=hidden;strokeColor=default;fontSize=12;labelBackgroundColor=default;gradientColor=none;perimeterSpacing=0;shadow=0;gradientDirection=north;labelBorderColor=none;fontFamily=Roboto;fontSource=https%3A%2F%2Ffonts.googleapis.com%2Fcss%3Ffamily%3DRoboto;whiteSpace=wrap;" vertex="1" parent="Qf7x0E1dqHhBOgiYK0y1-350">
          <mxGeometry width="79" height="30" as="geometry">
            <mxRectangle width="79" height="30" as="alternateBounds" />
          </mxGeometry>
        </mxCell>
        <mxCell id="Qf7x0E1dqHhBOgiYK0y1-352" value="description" style="shape=partialRectangle;html=1;connectable=0;fillColor=default;top=0;left=0;bottom=0;right=0;align=left;spacingLeft=6;overflow=hidden;strokeColor=default;fontSize=12;labelBackgroundColor=default;gradientColor=none;perimeterSpacing=0;shadow=0;gradientDirection=north;labelBorderColor=none;fontFamily=Roboto;fontSource=https%3A%2F%2Ffonts.googleapis.com%2Fcss%3Ffamily%3DRoboto;whiteSpace=wrap;" vertex="1" parent="Qf7x0E1dqHhBOgiYK0y1-350">
          <mxGeometry x="79" width="240" height="30" as="geometry">
            <mxRectangle width="240" height="30" as="alternateBounds" />
          </mxGeometry>
        </mxCell>
        <mxCell id="Qf7x0E1dqHhBOgiYK0y1-353" value="" style="shape=tableRow;horizontal=0;startSize=0;swimlaneHead=0;swimlaneBody=0;top=0;left=0;bottom=0;right=0;collapsible=0;dropTarget=0;fillColor=none;points=[[0,0.5],[1,0.5]];portConstraint=eastwest;strokeColor=inherit;fontSize=16;labelBackgroundColor=default;whiteSpace=wrap;" vertex="1" parent="Qf7x0E1dqHhBOgiYK0y1-343">
          <mxGeometry y="120" width="319" height="30" as="geometry" />
        </mxCell>
        <mxCell id="Qf7x0E1dqHhBOgiYK0y1-354" value="date" style="shape=partialRectangle;html=1;connectable=0;fillColor=default;top=0;left=0;bottom=0;right=0;overflow=hidden;strokeColor=default;fontSize=12;labelBackgroundColor=default;gradientColor=none;perimeterSpacing=0;shadow=0;gradientDirection=north;labelBorderColor=none;fontFamily=Roboto;fontSource=https%3A%2F%2Ffonts.googleapis.com%2Fcss%3Ffamily%3DRoboto;whiteSpace=wrap;" vertex="1" parent="Qf7x0E1dqHhBOgiYK0y1-353">
          <mxGeometry width="79" height="30" as="geometry">
            <mxRectangle width="79" height="30" as="alternateBounds" />
          </mxGeometry>
        </mxCell>
        <mxCell id="Qf7x0E1dqHhBOgiYK0y1-355" value="date" style="shape=partialRectangle;html=1;connectable=0;fillColor=default;top=0;left=0;bottom=0;right=0;align=left;spacingLeft=6;overflow=hidden;strokeColor=default;fontSize=12;labelBackgroundColor=default;gradientColor=none;perimeterSpacing=0;shadow=0;gradientDirection=north;labelBorderColor=none;fontFamily=Roboto;fontSource=https%3A%2F%2Ffonts.googleapis.com%2Fcss%3Ffamily%3DRoboto;whiteSpace=wrap;" vertex="1" parent="Qf7x0E1dqHhBOgiYK0y1-353">
          <mxGeometry x="79" width="240" height="30" as="geometry">
            <mxRectangle width="240" height="30" as="alternateBounds" />
          </mxGeometry>
        </mxCell>
        <mxCell id="Qf7x0E1dqHhBOgiYK0y1-356" value="" style="shape=tableRow;horizontal=0;startSize=0;swimlaneHead=0;swimlaneBody=0;top=0;left=0;bottom=0;right=0;collapsible=0;dropTarget=0;fillColor=none;points=[[0,0.5],[1,0.5]];portConstraint=eastwest;strokeColor=inherit;fontSize=16;labelBackgroundColor=default;whiteSpace=wrap;" vertex="1" parent="Qf7x0E1dqHhBOgiYK0y1-343">
          <mxGeometry y="150" width="319" height="30" as="geometry" />
        </mxCell>
        <mxCell id="Qf7x0E1dqHhBOgiYK0y1-357" value="int" style="shape=partialRectangle;html=1;connectable=0;fillColor=default;top=0;left=0;bottom=0;right=0;overflow=hidden;strokeColor=default;fontSize=12;labelBackgroundColor=default;gradientColor=none;perimeterSpacing=0;shadow=0;gradientDirection=north;labelBorderColor=none;fontFamily=Roboto;fontSource=https%3A%2F%2Ffonts.googleapis.com%2Fcss%3Ffamily%3DRoboto;whiteSpace=wrap;" vertex="1" parent="Qf7x0E1dqHhBOgiYK0y1-356">
          <mxGeometry width="79" height="30" as="geometry">
            <mxRectangle width="79" height="30" as="alternateBounds" />
          </mxGeometry>
        </mxCell>
        <mxCell id="Qf7x0E1dqHhBOgiYK0y1-358" value="duration (in hours)" style="shape=partialRectangle;html=1;connectable=0;fillColor=default;top=0;left=0;bottom=0;right=0;align=left;spacingLeft=6;overflow=hidden;strokeColor=default;fontSize=12;labelBackgroundColor=default;gradientColor=none;perimeterSpacing=0;shadow=0;gradientDirection=north;labelBorderColor=none;fontFamily=Roboto;fontSource=https%3A%2F%2Ffonts.googleapis.com%2Fcss%3Ffamily%3DRoboto;whiteSpace=wrap;" vertex="1" parent="Qf7x0E1dqHhBOgiYK0y1-356">
          <mxGeometry x="79" width="240" height="30" as="geometry">
            <mxRectangle width="240" height="30" as="alternateBounds" />
          </mxGeometry>
        </mxCell>
        <mxCell id="Qf7x0E1dqHhBOgiYK0y1-359" value="" style="shape=tableRow;horizontal=0;startSize=0;swimlaneHead=0;swimlaneBody=0;top=0;left=0;bottom=0;right=0;collapsible=0;dropTarget=0;fillColor=none;points=[[0,0.5],[1,0.5]];portConstraint=eastwest;strokeColor=inherit;fontSize=16;labelBackgroundColor=default;whiteSpace=wrap;" vertex="1" parent="Qf7x0E1dqHhBOgiYK0y1-343">
          <mxGeometry y="180" width="319" height="30" as="geometry" />
        </mxCell>
        <mxCell id="Qf7x0E1dqHhBOgiYK0y1-360" value="varchar(50)" style="shape=partialRectangle;html=1;connectable=0;fillColor=default;top=0;left=0;bottom=0;right=0;overflow=hidden;strokeColor=default;fontSize=12;labelBackgroundColor=default;gradientColor=none;perimeterSpacing=0;shadow=0;gradientDirection=north;labelBorderColor=none;fontFamily=Roboto;fontSource=https%3A%2F%2Ffonts.googleapis.com%2Fcss%3Ffamily%3DRoboto;whiteSpace=wrap;" vertex="1" parent="Qf7x0E1dqHhBOgiYK0y1-359">
          <mxGeometry width="79" height="30" as="geometry">
            <mxRectangle width="79" height="30" as="alternateBounds" />
          </mxGeometry>
        </mxCell>
        <mxCell id="Qf7x0E1dqHhBOgiYK0y1-361" value="instructor" style="shape=partialRectangle;html=1;connectable=0;fillColor=default;top=0;left=0;bottom=0;right=0;align=left;spacingLeft=6;overflow=hidden;strokeColor=default;fontSize=12;labelBackgroundColor=default;gradientColor=none;perimeterSpacing=0;shadow=0;gradientDirection=north;labelBorderColor=none;fontFamily=Roboto;fontSource=https%3A%2F%2Ffonts.googleapis.com%2Fcss%3Ffamily%3DRoboto;whiteSpace=wrap;" vertex="1" parent="Qf7x0E1dqHhBOgiYK0y1-359">
          <mxGeometry x="79" width="240" height="30" as="geometry">
            <mxRectangle width="240" height="30" as="alternateBounds" />
          </mxGeometry>
        </mxCell>
        <mxCell id="Qf7x0E1dqHhBOgiYK0y1-362" value="" style="shape=tableRow;horizontal=0;startSize=0;swimlaneHead=0;swimlaneBody=0;top=0;left=0;bottom=0;right=0;collapsible=0;dropTarget=0;fillColor=none;points=[[0,0.5],[1,0.5]];portConstraint=eastwest;strokeColor=inherit;fontSize=16;labelBackgroundColor=default;whiteSpace=wrap;" vertex="1" parent="Qf7x0E1dqHhBOgiYK0y1-343">
          <mxGeometry y="210" width="319" height="30" as="geometry" />
        </mxCell>
        <mxCell id="Qf7x0E1dqHhBOgiYK0y1-363" value="int" style="shape=partialRectangle;html=1;connectable=0;fillColor=default;top=0;left=0;bottom=0;right=0;overflow=hidden;strokeColor=default;fontSize=12;labelBackgroundColor=default;gradientColor=none;perimeterSpacing=0;shadow=0;gradientDirection=north;labelBorderColor=none;fontFamily=Roboto;fontSource=https%3A%2F%2Ffonts.googleapis.com%2Fcss%3Ffamily%3DRoboto;whiteSpace=wrap;" vertex="1" parent="Qf7x0E1dqHhBOgiYK0y1-362">
          <mxGeometry width="79" height="30" as="geometry">
            <mxRectangle width="79" height="30" as="alternateBounds" />
          </mxGeometry>
        </mxCell>
        <mxCell id="Qf7x0E1dqHhBOgiYK0y1-364" value="departmentID (FK to Departments)" style="shape=partialRectangle;html=1;connectable=0;fillColor=default;top=0;left=0;bottom=0;right=0;align=left;spacingLeft=6;overflow=hidden;strokeColor=default;fontSize=12;labelBackgroundColor=default;gradientColor=none;perimeterSpacing=0;shadow=0;gradientDirection=north;labelBorderColor=none;fontFamily=Roboto;fontSource=https%3A%2F%2Ffonts.googleapis.com%2Fcss%3Ffamily%3DRoboto;whiteSpace=wrap;" vertex="1" parent="Qf7x0E1dqHhBOgiYK0y1-362">
          <mxGeometry x="79" width="240" height="30" as="geometry">
            <mxRectangle width="240" height="30" as="alternateBounds" />
          </mxGeometry>
        </mxCell>
        <mxCell id="Qf7x0E1dqHhBOgiYK0y1-377" value="Employee Training (Junction Table)" style="shape=table;startSize=30;container=1;collapsible=0;childLayout=tableLayout;fixedRows=1;rowLines=0;fontStyle=1;strokeColor=default;fontSize=16;points=[[0,0,0,0,0],[0,0.25,0,0,0],[0,0.5,0,0,0],[0,0.75,0,0,0],[0,1,0,0,0],[0.25,0,0,0,0],[0.25,1,0,0,0],[0.5,0,0,0,0],[0.5,1,0,0,0],[0.75,0,0,0,0],[0.75,1,0,0,0],[1,0,0,0,0],[1,0.25,0,0,0],[1,0.5,0,0,0],[1,0.75,0,0,0],[1,1,0,0,0]];labelBackgroundColor=default;whiteSpace=wrap;" vertex="1" parent="WIyWlLk6GJQsqaUBKTNV-1">
          <mxGeometry x="760" y="720" width="319" height="180" as="geometry" />
        </mxCell>
        <mxCell id="Qf7x0E1dqHhBOgiYK0y1-378" value="" style="shape=tableRow;horizontal=0;startSize=0;swimlaneHead=0;swimlaneBody=0;top=0;left=0;bottom=0;right=0;collapsible=0;dropTarget=0;fillColor=none;points=[[0,0.5],[1,0.5]];portConstraint=eastwest;strokeColor=inherit;fontSize=16;labelBackgroundColor=default;whiteSpace=wrap;" vertex="1" parent="Qf7x0E1dqHhBOgiYK0y1-377">
          <mxGeometry y="30" width="319" height="30" as="geometry" />
        </mxCell>
        <mxCell id="Qf7x0E1dqHhBOgiYK0y1-379" value="int" style="shape=partialRectangle;html=1;connectable=0;fillColor=default;top=0;left=0;bottom=0;right=0;overflow=hidden;pointerEvents=1;strokeColor=default;fontSize=12;labelBackgroundColor=default;gradientColor=none;perimeterSpacing=0;shadow=0;gradientDirection=north;labelBorderColor=none;fontFamily=Roboto;fontSource=https%3A%2F%2Ffonts.googleapis.com%2Fcss%3Ffamily%3DRoboto;whiteSpace=wrap;" vertex="1" parent="Qf7x0E1dqHhBOgiYK0y1-378">
          <mxGeometry width="79" height="30" as="geometry">
            <mxRectangle width="79" height="30" as="alternateBounds" />
          </mxGeometry>
        </mxCell>
        <mxCell id="Qf7x0E1dqHhBOgiYK0y1-380" value="employeeTrainingID (PK, AUTO_INCREMENT)" style="shape=partialRectangle;html=1;connectable=0;fillColor=default;top=0;left=0;bottom=0;right=0;align=left;spacingLeft=6;overflow=hidden;strokeColor=default;fontSize=12;labelBackgroundColor=default;gradientColor=none;perimeterSpacing=0;shadow=0;gradientDirection=north;labelBorderColor=none;fontFamily=Roboto;fontSource=https%3A%2F%2Ffonts.googleapis.com%2Fcss%3Ffamily%3DRoboto;whiteSpace=wrap;" vertex="1" parent="Qf7x0E1dqHhBOgiYK0y1-378">
          <mxGeometry x="79" width="240" height="30" as="geometry">
            <mxRectangle width="240" height="30" as="alternateBounds" />
          </mxGeometry>
        </mxCell>
        <mxCell id="Qf7x0E1dqHhBOgiYK0y1-381" value="" style="shape=tableRow;horizontal=0;startSize=0;swimlaneHead=0;swimlaneBody=0;top=0;left=0;bottom=0;right=0;collapsible=0;dropTarget=0;fillColor=none;points=[[0,0.5],[1,0.5]];portConstraint=eastwest;strokeColor=inherit;fontSize=16;labelBackgroundColor=default;whiteSpace=wrap;" vertex="1" parent="Qf7x0E1dqHhBOgiYK0y1-377">
          <mxGeometry y="60" width="319" height="30" as="geometry" />
        </mxCell>
        <mxCell id="Qf7x0E1dqHhBOgiYK0y1-382" value="int" style="shape=partialRectangle;html=1;connectable=0;fillColor=default;top=0;left=0;bottom=0;right=0;overflow=hidden;strokeColor=default;fontSize=12;labelBackgroundColor=default;gradientColor=none;perimeterSpacing=0;shadow=0;gradientDirection=north;labelBorderColor=none;fontFamily=Roboto;fontSource=https%3A%2F%2Ffonts.googleapis.com%2Fcss%3Ffamily%3DRoboto;whiteSpace=wrap;" vertex="1" parent="Qf7x0E1dqHhBOgiYK0y1-381">
          <mxGeometry width="79" height="30" as="geometry">
            <mxRectangle width="79" height="30" as="alternateBounds" />
          </mxGeometry>
        </mxCell>
        <mxCell id="Qf7x0E1dqHhBOgiYK0y1-383" value="employeeID (FK)" style="shape=partialRectangle;html=1;connectable=0;fillColor=default;top=0;left=0;bottom=0;right=0;align=left;spacingLeft=6;overflow=hidden;strokeColor=default;fontSize=12;labelBackgroundColor=default;gradientColor=none;perimeterSpacing=0;shadow=0;gradientDirection=north;labelBorderColor=none;fontFamily=Roboto;fontSource=https%3A%2F%2Ffonts.googleapis.com%2Fcss%3Ffamily%3DRoboto;whiteSpace=wrap;" vertex="1" parent="Qf7x0E1dqHhBOgiYK0y1-381">
          <mxGeometry x="79" width="240" height="30" as="geometry">
            <mxRectangle width="240" height="30" as="alternateBounds" />
          </mxGeometry>
        </mxCell>
        <mxCell id="Qf7x0E1dqHhBOgiYK0y1-384" value="" style="shape=tableRow;horizontal=0;startSize=0;swimlaneHead=0;swimlaneBody=0;top=0;left=0;bottom=0;right=0;collapsible=0;dropTarget=0;fillColor=none;points=[[0,0.5],[1,0.5]];portConstraint=eastwest;strokeColor=inherit;fontSize=16;labelBackgroundColor=default;whiteSpace=wrap;" vertex="1" parent="Qf7x0E1dqHhBOgiYK0y1-377">
          <mxGeometry y="90" width="319" height="30" as="geometry" />
        </mxCell>
        <mxCell id="Qf7x0E1dqHhBOgiYK0y1-385" value="int" style="shape=partialRectangle;html=1;connectable=0;fillColor=default;top=0;left=0;bottom=0;right=0;overflow=hidden;strokeColor=default;fontSize=12;labelBackgroundColor=default;gradientColor=none;perimeterSpacing=0;shadow=0;gradientDirection=north;labelBorderColor=none;fontFamily=Roboto;fontSource=https%3A%2F%2Ffonts.googleapis.com%2Fcss%3Ffamily%3DRoboto;whiteSpace=wrap;" vertex="1" parent="Qf7x0E1dqHhBOgiYK0y1-384">
          <mxGeometry width="79" height="30" as="geometry">
            <mxRectangle width="79" height="30" as="alternateBounds" />
          </mxGeometry>
        </mxCell>
        <mxCell id="Qf7x0E1dqHhBOgiYK0y1-386" value="trainingID (FK)" style="shape=partialRectangle;html=1;connectable=0;fillColor=default;top=0;left=0;bottom=0;right=0;align=left;spacingLeft=6;overflow=hidden;strokeColor=default;fontSize=12;labelBackgroundColor=default;gradientColor=none;perimeterSpacing=0;shadow=0;gradientDirection=north;labelBorderColor=none;fontFamily=Roboto;fontSource=https%3A%2F%2Ffonts.googleapis.com%2Fcss%3Ffamily%3DRoboto;whiteSpace=wrap;" vertex="1" parent="Qf7x0E1dqHhBOgiYK0y1-384">
          <mxGeometry x="79" width="240" height="30" as="geometry">
            <mxRectangle width="240" height="30" as="alternateBounds" />
          </mxGeometry>
        </mxCell>
        <mxCell id="Qf7x0E1dqHhBOgiYK0y1-387" value="" style="shape=tableRow;horizontal=0;startSize=0;swimlaneHead=0;swimlaneBody=0;top=0;left=0;bottom=0;right=0;collapsible=0;dropTarget=0;fillColor=none;points=[[0,0.5],[1,0.5]];portConstraint=eastwest;strokeColor=inherit;fontSize=16;labelBackgroundColor=default;whiteSpace=wrap;" vertex="1" parent="Qf7x0E1dqHhBOgiYK0y1-377">
          <mxGeometry y="120" width="319" height="30" as="geometry" />
        </mxCell>
        <mxCell id="Qf7x0E1dqHhBOgiYK0y1-388" value="enum" style="shape=partialRectangle;html=1;connectable=0;fillColor=default;top=0;left=0;bottom=0;right=0;overflow=hidden;strokeColor=default;fontSize=12;labelBackgroundColor=default;gradientColor=none;perimeterSpacing=0;shadow=0;gradientDirection=north;labelBorderColor=none;fontFamily=Roboto;fontSource=https%3A%2F%2Ffonts.googleapis.com%2Fcss%3Ffamily%3DRoboto;whiteSpace=wrap;" vertex="1" parent="Qf7x0E1dqHhBOgiYK0y1-387">
          <mxGeometry width="79" height="30" as="geometry">
            <mxRectangle width="79" height="30" as="alternateBounds" />
          </mxGeometry>
        </mxCell>
        <mxCell id="Qf7x0E1dqHhBOgiYK0y1-389" value="completionStatus (&#39;Completed&#39;, &#39;Penidng&#39;, &#39;Failed)" style="shape=partialRectangle;html=1;connectable=0;fillColor=default;top=0;left=0;bottom=0;right=0;align=left;spacingLeft=6;overflow=hidden;strokeColor=default;fontSize=12;labelBackgroundColor=default;gradientColor=none;perimeterSpacing=0;shadow=0;gradientDirection=north;labelBorderColor=none;fontFamily=Roboto;fontSource=https%3A%2F%2Ffonts.googleapis.com%2Fcss%3Ffamily%3DRoboto;whiteSpace=wrap;" vertex="1" parent="Qf7x0E1dqHhBOgiYK0y1-387">
          <mxGeometry x="79" width="240" height="30" as="geometry">
            <mxRectangle width="240" height="30" as="alternateBounds" />
          </mxGeometry>
        </mxCell>
        <mxCell id="Qf7x0E1dqHhBOgiYK0y1-390" value="" style="shape=tableRow;horizontal=0;startSize=0;swimlaneHead=0;swimlaneBody=0;top=0;left=0;bottom=0;right=0;collapsible=0;dropTarget=0;fillColor=none;points=[[0,0.5],[1,0.5]];portConstraint=eastwest;strokeColor=inherit;fontSize=16;labelBackgroundColor=default;whiteSpace=wrap;" vertex="1" parent="Qf7x0E1dqHhBOgiYK0y1-377">
          <mxGeometry y="150" width="319" height="30" as="geometry" />
        </mxCell>
        <mxCell id="Qf7x0E1dqHhBOgiYK0y1-391" value="date" style="shape=partialRectangle;html=1;connectable=0;fillColor=default;top=0;left=0;bottom=0;right=0;overflow=hidden;strokeColor=default;fontSize=12;labelBackgroundColor=default;gradientColor=none;perimeterSpacing=0;shadow=0;gradientDirection=north;labelBorderColor=none;fontFamily=Roboto;fontSource=https%3A%2F%2Ffonts.googleapis.com%2Fcss%3Ffamily%3DRoboto;whiteSpace=wrap;" vertex="1" parent="Qf7x0E1dqHhBOgiYK0y1-390">
          <mxGeometry width="79" height="30" as="geometry">
            <mxRectangle width="79" height="30" as="alternateBounds" />
          </mxGeometry>
        </mxCell>
        <mxCell id="Qf7x0E1dqHhBOgiYK0y1-392" value="dateCompleted (NULLABLE)" style="shape=partialRectangle;html=1;connectable=0;fillColor=default;top=0;left=0;bottom=0;right=0;align=left;spacingLeft=6;overflow=hidden;strokeColor=default;fontSize=12;labelBackgroundColor=default;gradientColor=none;perimeterSpacing=0;shadow=0;gradientDirection=north;labelBorderColor=none;fontFamily=Roboto;fontSource=https%3A%2F%2Ffonts.googleapis.com%2Fcss%3Ffamily%3DRoboto;whiteSpace=wrap;" vertex="1" parent="Qf7x0E1dqHhBOgiYK0y1-390">
          <mxGeometry x="79" width="240" height="30" as="geometry">
            <mxRectangle width="240" height="30" as="alternateBounds" />
          </mxGeometry>
        </mxCell>
        <mxCell id="Qf7x0E1dqHhBOgiYK0y1-393" value="Performance Reviews" style="shape=table;startSize=30;container=1;collapsible=0;childLayout=tableLayout;fixedRows=1;rowLines=0;fontStyle=1;strokeColor=default;fontSize=16;points=[[0,0,0,0,0],[0,0.25,0,0,0],[0,0.5,0,0,0],[0,0.75,0,0,0],[0,1,0,0,0],[0.25,0,0,0,0],[0.25,1,0,0,0],[0.5,0,0,0,0],[0.5,1,0,0,0],[0.75,0,0,0,0],[0.75,1,0,0,0],[1,0,0,0,0],[1,0.25,0,0,0],[1,0.5,0,0,0],[1,0.75,0,0,0],[1,1,0,0,0]];labelBackgroundColor=default;whiteSpace=wrap;" vertex="1" parent="WIyWlLk6GJQsqaUBKTNV-1">
          <mxGeometry x="20" y="640" width="319" height="210" as="geometry" />
        </mxCell>
        <mxCell id="Qf7x0E1dqHhBOgiYK0y1-394" value="" style="shape=tableRow;horizontal=0;startSize=0;swimlaneHead=0;swimlaneBody=0;top=0;left=0;bottom=0;right=0;collapsible=0;dropTarget=0;fillColor=none;points=[[0,0.5],[1,0.5]];portConstraint=eastwest;strokeColor=inherit;fontSize=16;labelBackgroundColor=default;whiteSpace=wrap;" vertex="1" parent="Qf7x0E1dqHhBOgiYK0y1-393">
          <mxGeometry y="30" width="319" height="30" as="geometry" />
        </mxCell>
        <mxCell id="Qf7x0E1dqHhBOgiYK0y1-395" value="int" style="shape=partialRectangle;html=1;connectable=0;fillColor=default;top=0;left=0;bottom=0;right=0;overflow=hidden;pointerEvents=1;strokeColor=default;fontSize=12;labelBackgroundColor=default;gradientColor=none;perimeterSpacing=0;shadow=0;gradientDirection=north;labelBorderColor=none;fontFamily=Roboto;fontSource=https%3A%2F%2Ffonts.googleapis.com%2Fcss%3Ffamily%3DRoboto;whiteSpace=wrap;" vertex="1" parent="Qf7x0E1dqHhBOgiYK0y1-394">
          <mxGeometry width="79" height="30" as="geometry">
            <mxRectangle width="79" height="30" as="alternateBounds" />
          </mxGeometry>
        </mxCell>
        <mxCell id="Qf7x0E1dqHhBOgiYK0y1-396" value="reviewID (PK, AUTO_INCREMENT)" style="shape=partialRectangle;html=1;connectable=0;fillColor=default;top=0;left=0;bottom=0;right=0;align=left;spacingLeft=6;overflow=hidden;strokeColor=default;fontSize=12;labelBackgroundColor=default;gradientColor=none;perimeterSpacing=0;shadow=0;gradientDirection=north;labelBorderColor=none;fontFamily=Roboto;fontSource=https%3A%2F%2Ffonts.googleapis.com%2Fcss%3Ffamily%3DRoboto;whiteSpace=wrap;" vertex="1" parent="Qf7x0E1dqHhBOgiYK0y1-394">
          <mxGeometry x="79" width="240" height="30" as="geometry">
            <mxRectangle width="240" height="30" as="alternateBounds" />
          </mxGeometry>
        </mxCell>
        <mxCell id="Qf7x0E1dqHhBOgiYK0y1-397" value="" style="shape=tableRow;horizontal=0;startSize=0;swimlaneHead=0;swimlaneBody=0;top=0;left=0;bottom=0;right=0;collapsible=0;dropTarget=0;fillColor=none;points=[[0,0.5],[1,0.5]];portConstraint=eastwest;strokeColor=inherit;fontSize=16;labelBackgroundColor=default;whiteSpace=wrap;" vertex="1" parent="Qf7x0E1dqHhBOgiYK0y1-393">
          <mxGeometry y="60" width="319" height="30" as="geometry" />
        </mxCell>
        <mxCell id="Qf7x0E1dqHhBOgiYK0y1-398" value="int" style="shape=partialRectangle;html=1;connectable=0;fillColor=default;top=0;left=0;bottom=0;right=0;overflow=hidden;strokeColor=default;fontSize=12;labelBackgroundColor=default;gradientColor=none;perimeterSpacing=0;shadow=0;gradientDirection=north;labelBorderColor=none;fontFamily=Roboto;fontSource=https%3A%2F%2Ffonts.googleapis.com%2Fcss%3Ffamily%3DRoboto;whiteSpace=wrap;" vertex="1" parent="Qf7x0E1dqHhBOgiYK0y1-397">
          <mxGeometry width="79" height="30" as="geometry">
            <mxRectangle width="79" height="30" as="alternateBounds" />
          </mxGeometry>
        </mxCell>
        <mxCell id="Qf7x0E1dqHhBOgiYK0y1-399" value="employeeID (FK)" style="shape=partialRectangle;html=1;connectable=0;fillColor=default;top=0;left=0;bottom=0;right=0;align=left;spacingLeft=6;overflow=hidden;strokeColor=default;fontSize=12;labelBackgroundColor=default;gradientColor=none;perimeterSpacing=0;shadow=0;gradientDirection=north;labelBorderColor=none;fontFamily=Roboto;fontSource=https%3A%2F%2Ffonts.googleapis.com%2Fcss%3Ffamily%3DRoboto;whiteSpace=wrap;" vertex="1" parent="Qf7x0E1dqHhBOgiYK0y1-397">
          <mxGeometry x="79" width="240" height="30" as="geometry">
            <mxRectangle width="240" height="30" as="alternateBounds" />
          </mxGeometry>
        </mxCell>
        <mxCell id="Qf7x0E1dqHhBOgiYK0y1-400" value="" style="shape=tableRow;horizontal=0;startSize=0;swimlaneHead=0;swimlaneBody=0;top=0;left=0;bottom=0;right=0;collapsible=0;dropTarget=0;fillColor=none;points=[[0,0.5],[1,0.5]];portConstraint=eastwest;strokeColor=inherit;fontSize=16;labelBackgroundColor=default;whiteSpace=wrap;" vertex="1" parent="Qf7x0E1dqHhBOgiYK0y1-393">
          <mxGeometry y="90" width="319" height="30" as="geometry" />
        </mxCell>
        <mxCell id="Qf7x0E1dqHhBOgiYK0y1-401" value="date" style="shape=partialRectangle;html=1;connectable=0;fillColor=default;top=0;left=0;bottom=0;right=0;overflow=hidden;strokeColor=default;fontSize=12;labelBackgroundColor=default;gradientColor=none;perimeterSpacing=0;shadow=0;gradientDirection=north;labelBorderColor=none;fontFamily=Roboto;fontSource=https%3A%2F%2Ffonts.googleapis.com%2Fcss%3Ffamily%3DRoboto;whiteSpace=wrap;" vertex="1" parent="Qf7x0E1dqHhBOgiYK0y1-400">
          <mxGeometry width="79" height="30" as="geometry">
            <mxRectangle width="79" height="30" as="alternateBounds" />
          </mxGeometry>
        </mxCell>
        <mxCell id="Qf7x0E1dqHhBOgiYK0y1-402" value="reviewDate" style="shape=partialRectangle;html=1;connectable=0;fillColor=default;top=0;left=0;bottom=0;right=0;align=left;spacingLeft=6;overflow=hidden;strokeColor=default;fontSize=12;labelBackgroundColor=default;gradientColor=none;perimeterSpacing=0;shadow=0;gradientDirection=north;labelBorderColor=none;fontFamily=Roboto;fontSource=https%3A%2F%2Ffonts.googleapis.com%2Fcss%3Ffamily%3DRoboto;whiteSpace=wrap;" vertex="1" parent="Qf7x0E1dqHhBOgiYK0y1-400">
          <mxGeometry x="79" width="240" height="30" as="geometry">
            <mxRectangle width="240" height="30" as="alternateBounds" />
          </mxGeometry>
        </mxCell>
        <mxCell id="Qf7x0E1dqHhBOgiYK0y1-403" value="" style="shape=tableRow;horizontal=0;startSize=0;swimlaneHead=0;swimlaneBody=0;top=0;left=0;bottom=0;right=0;collapsible=0;dropTarget=0;fillColor=none;points=[[0,0.5],[1,0.5]];portConstraint=eastwest;strokeColor=inherit;fontSize=16;labelBackgroundColor=default;whiteSpace=wrap;" vertex="1" parent="Qf7x0E1dqHhBOgiYK0y1-393">
          <mxGeometry y="120" width="319" height="30" as="geometry" />
        </mxCell>
        <mxCell id="Qf7x0E1dqHhBOgiYK0y1-404" value="int" style="shape=partialRectangle;html=1;connectable=0;fillColor=default;top=0;left=0;bottom=0;right=0;overflow=hidden;strokeColor=default;fontSize=12;labelBackgroundColor=default;gradientColor=none;perimeterSpacing=0;shadow=0;gradientDirection=north;labelBorderColor=none;fontFamily=Roboto;fontSource=https%3A%2F%2Ffonts.googleapis.com%2Fcss%3Ffamily%3DRoboto;whiteSpace=wrap;" vertex="1" parent="Qf7x0E1dqHhBOgiYK0y1-403">
          <mxGeometry width="79" height="30" as="geometry">
            <mxRectangle width="79" height="30" as="alternateBounds" />
          </mxGeometry>
        </mxCell>
        <mxCell id="Qf7x0E1dqHhBOgiYK0y1-405" value="managerID (FK to Employees)" style="shape=partialRectangle;html=1;connectable=0;fillColor=default;top=0;left=0;bottom=0;right=0;align=left;spacingLeft=6;overflow=hidden;strokeColor=default;fontSize=12;labelBackgroundColor=default;gradientColor=none;perimeterSpacing=0;shadow=0;gradientDirection=north;labelBorderColor=none;fontFamily=Roboto;fontSource=https%3A%2F%2Ffonts.googleapis.com%2Fcss%3Ffamily%3DRoboto;whiteSpace=wrap;" vertex="1" parent="Qf7x0E1dqHhBOgiYK0y1-403">
          <mxGeometry x="79" width="240" height="30" as="geometry">
            <mxRectangle width="240" height="30" as="alternateBounds" />
          </mxGeometry>
        </mxCell>
        <mxCell id="Qf7x0E1dqHhBOgiYK0y1-406" value="" style="shape=tableRow;horizontal=0;startSize=0;swimlaneHead=0;swimlaneBody=0;top=0;left=0;bottom=0;right=0;collapsible=0;dropTarget=0;fillColor=none;points=[[0,0.5],[1,0.5]];portConstraint=eastwest;strokeColor=inherit;fontSize=16;labelBackgroundColor=default;whiteSpace=wrap;" vertex="1" parent="Qf7x0E1dqHhBOgiYK0y1-393">
          <mxGeometry y="150" width="319" height="30" as="geometry" />
        </mxCell>
        <mxCell id="Qf7x0E1dqHhBOgiYK0y1-407" value="decimal(4,2)" style="shape=partialRectangle;html=1;connectable=0;fillColor=default;top=0;left=0;bottom=0;right=0;overflow=hidden;strokeColor=default;fontSize=12;labelBackgroundColor=default;gradientColor=none;perimeterSpacing=0;shadow=0;gradientDirection=north;labelBorderColor=none;fontFamily=Roboto;fontSource=https%3A%2F%2Ffonts.googleapis.com%2Fcss%3Ffamily%3DRoboto;whiteSpace=wrap;" vertex="1" parent="Qf7x0E1dqHhBOgiYK0y1-406">
          <mxGeometry width="79" height="30" as="geometry">
            <mxRectangle width="79" height="30" as="alternateBounds" />
          </mxGeometry>
        </mxCell>
        <mxCell id="Qf7x0E1dqHhBOgiYK0y1-408" value="overallScore" style="shape=partialRectangle;html=1;connectable=0;fillColor=default;top=0;left=0;bottom=0;right=0;align=left;spacingLeft=6;overflow=hidden;strokeColor=default;fontSize=12;labelBackgroundColor=default;gradientColor=none;perimeterSpacing=0;shadow=0;gradientDirection=north;labelBorderColor=none;fontFamily=Roboto;fontSource=https%3A%2F%2Ffonts.googleapis.com%2Fcss%3Ffamily%3DRoboto;whiteSpace=wrap;" vertex="1" parent="Qf7x0E1dqHhBOgiYK0y1-406">
          <mxGeometry x="79" width="240" height="30" as="geometry">
            <mxRectangle width="240" height="30" as="alternateBounds" />
          </mxGeometry>
        </mxCell>
        <mxCell id="Qf7x0E1dqHhBOgiYK0y1-409" value="" style="shape=tableRow;horizontal=0;startSize=0;swimlaneHead=0;swimlaneBody=0;top=0;left=0;bottom=0;right=0;collapsible=0;dropTarget=0;fillColor=none;points=[[0,0.5],[1,0.5]];portConstraint=eastwest;strokeColor=inherit;fontSize=16;labelBackgroundColor=default;whiteSpace=wrap;" vertex="1" parent="Qf7x0E1dqHhBOgiYK0y1-393">
          <mxGeometry y="180" width="319" height="30" as="geometry" />
        </mxCell>
        <mxCell id="Qf7x0E1dqHhBOgiYK0y1-410" value="text" style="shape=partialRectangle;html=1;connectable=0;fillColor=default;top=0;left=0;bottom=0;right=0;overflow=hidden;strokeColor=default;fontSize=12;labelBackgroundColor=default;gradientColor=none;perimeterSpacing=0;shadow=0;gradientDirection=north;labelBorderColor=none;fontFamily=Roboto;fontSource=https%3A%2F%2Ffonts.googleapis.com%2Fcss%3Ffamily%3DRoboto;whiteSpace=wrap;" vertex="1" parent="Qf7x0E1dqHhBOgiYK0y1-409">
          <mxGeometry width="79" height="30" as="geometry">
            <mxRectangle width="79" height="30" as="alternateBounds" />
          </mxGeometry>
        </mxCell>
        <mxCell id="Qf7x0E1dqHhBOgiYK0y1-411" value="comments" style="shape=partialRectangle;html=1;connectable=0;fillColor=default;top=0;left=0;bottom=0;right=0;align=left;spacingLeft=6;overflow=hidden;strokeColor=default;fontSize=12;labelBackgroundColor=default;gradientColor=none;perimeterSpacing=0;shadow=0;gradientDirection=north;labelBorderColor=none;fontFamily=Roboto;fontSource=https%3A%2F%2Ffonts.googleapis.com%2Fcss%3Ffamily%3DRoboto;whiteSpace=wrap;" vertex="1" parent="Qf7x0E1dqHhBOgiYK0y1-409">
          <mxGeometry x="79" width="240" height="30" as="geometry">
            <mxRectangle width="240" height="30" as="alternateBounds" />
          </mxGeometry>
        </mxCell>
      </root>
    </mxGraphModel>
  </diagram>
</mxfile>
